<?xml version="1.0" encoding="UTF-8" standalone="no"?>
<svg
   version="1.1"
   preserveAspectRatio="xMidYMid meet"
   viewBox="344.5639097744361 330.27819548872174 111.73684210526318 91.21804511278197"
   width="53.87"
   height="43.61"
   id="svg26"
   sodipodi:docname="logo-svg.svg"
   inkscape:version="1.2.1 (9c6d41e410, 2022-07-14)"
   xmlns:inkscape="http://www.inkscape.org/namespaces/inkscape"
   xmlns:sodipodi="http://sodipodi.sourceforge.net/DTD/sodipodi-0.dtd"
   xmlns="http://www.w3.org/2000/svg"
   xmlns:svg="http://www.w3.org/2000/svg">
  <sodipodi:namedview
     id="namedview28"
     pagecolor="#ffffff"
     bordercolor="#666666"
     borderopacity="1.0"
     inkscape:showpageshadow="2"
     inkscape:pageopacity="0.0"
     inkscape:pagecheckerboard="0"
     inkscape:deskcolor="#d1d1d1"
     showgrid="false"
     inkscape:zoom="20.018344"
     inkscape:cx="35.867102"
     inkscape:cy="19.082497"
     inkscape:window-width="1920"
     inkscape:window-height="1027"
     inkscape:window-x="-8"
     inkscape:window-y="0"
     inkscape:window-maximized="1"
     inkscape:current-layer="svg26" />
  <defs
     id="defs14">
    <path
       d="M453.3 331.28L453.3 359.85L388.64 418.5L388.64 388.42L453.3 331.28Z"
       id="aFZf6T5ED" />
    <linearGradient
       id="gradientb2ThqnP5Op"
       gradientUnits="userSpaceOnUse"
       x1="420.97"
       y1="331.28"
       x2="420.97"
       y2="418.5">
      <stop
         style="stop-color: #06b6d4;stop-opacity: 1"
         offset="0%"
         id="stop3" />
      <stop
         style="stop-color: #67e8f9;stop-opacity: 1"
         offset="100%"
         id="stop5" />
    </linearGradient>
    <path
       d="M410.23 331.28L410.23 359.85L345.56 418.5L345.56 388.42L410.23 331.28Z"
       id="a9fehgwfM" />
    <linearGradient
       id="gradientk1wNV9Ostb"
       gradientUnits="userSpaceOnUse"
       x1="377.89"
       y1="331.28"
       x2="377.89"
       y2="418.5">
      <stop
         style="stop-color: #06b6d4;stop-opacity: 1"
         offset="0%"
         id="stop9" />
      <stop
         style="stop-color: #67e8f9;stop-opacity: 1"
         offset="100%"
         id="stop11" />
    </linearGradient>
  </defs>
  <path
     fill="#a9e5e9"
     opacity="1"
     stroke="none"
     d="m 362.82726,355.27997 c 3.72854,-4.9819 7.33371,-9.88798 10.73618,-14.88501 1.03831,-1.52492 2.10996,-2.20774 4.38458,-2.16939 7.81014,0.13169 15.626,0.0399 23.66979,-0.008 3.99756,-1.27514 7.91799,-1.0006 12.09359,-0.78947 3.60522,0.26005 6.95182,0.10436 10.55543,0.10854 1.64549,-0.19625 3.01458,-0.30696 4.30833,0.73841 3.25817,4.56766 6.09656,9.11545 9.58888,13.55531 2.4077,3.25572 4.47375,6.4702 6.55573,9.68193 2.29873,3.54611 5.20831,6.81642 7.68249,10.29697 1.82005,2.56033 1.92198,4.85448 0.051,7.39733 -5.26255,7.15213 -10.50516,14.31618 -15.25797,21.70537 -0.39822,0.61912 -0.78266,1.24236 -1.55229,1.86676 -2.30333,3.37023 -4.5856,6.55302 -7.08154,9.85691 -0.60362,0.57513 -1.18102,0.81523 -2.14112,0.87017 -7.24091,0.87235 -14.23323,-0.0475 -21.47516,0.14801 -1.37486,0.29114 -2.52435,0.24793 -3.66542,0.25461 -7.81484,0.0459 -15.63051,-0.17069 -23.4439,-10e-4 -2.83415,0.0616 -4.55539,-0.96245 -5.88686,-2.95115 -2.77116,-4.13906 -5.25404,-8.41299 -8.62612,-12.49768 -1.40976,-2.57814 -3.33884,-4.69909 -4.89604,-6.98873 -3.16547,-4.65435 -6.60436,-9.18603 -9.45738,-13.98276 -0.8791,-1.478 -0.73843,-2.7913 0.10443,-4.199 2.28737,-3.8202 5.33965,-7.29294 7.68506,-11.27858 1.7511,-2.48435 3.63472,-4.68865 6.06834,-6.72972 z"
     id="path216"
     style="stroke-width:0.517299" />
  <path
     fill="#2a2b2b"
     opacity="1"
     stroke="none"
     d="m 384.27832,388.74047 c -0.21275,-5.7447 -0.25246,-11.35005 -0.22887,-17.16855 0.73498,-0.7005 0.78446,-1.25595 0.20053,-1.97207 -0.18068,-1.36778 -0.22419,-2.62915 -0.20436,-4.09517 1.9455,-3.33381 5.77021,-4.1837 9.29565,-5.38066 0.97702,-0.33171 1.87874,-0.0524 2.66953,0.38197 0.88997,0.48883 1.94412,0.56997 3.11144,0.95454 6.96296,3.34933 13.70245,6.65249 20.56468,10.07323 0.78411,1.72098 2.7481,2.72922 2.94659,4.60041 0.28325,2.67032 0.0174,5.1181 -2.7158,7.22605 -1.76808,1.83271 -4.32425,2.31762 -6.56874,3.45471 -1.97278,-0.0473 -3.41595,0.41821 -4.37044,1.89191 -3.25295,1.64949 -6.45022,3.15078 -9.83217,4.67067 -7.09231,1.19049 -10.8056,0.0348 -14.86804,-4.63704 z"
     id="path358"
     style="stroke-width:0.517299" />
  <path
     fill="#292929"
     opacity="1"
     stroke="none"
     d="m 432.45295,381.97014 c -1.22106,4.85369 -2.51571,9.56 -3.9461,14.40999 -1.28441,1.14075 -1.65264,2.43755 -2.2148,3.66527 -2.23861,4.88907 -9.40704,7.64716 -15.66049,6.13503 -1.94615,-0.4706 -3.82115,-1.55452 -6.24387,-0.73057 -6.07997,-1.09325 -11.94766,-2.24962 -18.52704,-3.54628 5.98333,-2.739 11.40695,-5.22178 17.02809,-7.75188 1.10361,0.60757 1.31184,1.44725 0.79386,2.27526 -1.47937,2.36482 -0.34298,3.98879 2.10224,5.29431 4.33428,2.31412 8.942,2.42711 13.51554,0.72811 3.50948,-1.30372 4.88532,-4.00538 5.35824,-6.92994 0.51346,-3.17523 -0.73561,-4.75178 -4.3195,-6.07102 -1.08148,-0.39809 -2.0272,-0.90681 -1.89151,-2.1904 3.87589,-2.54685 8.28358,-4.10037 12.53938,-6.16363 0.72453,0.0871 1.1324,0.33167 1.46596,0.87575 z"
     id="path360"
     style="stroke-width:0.517299" />
  <path
     fill="#292b2b"
     opacity="1"
     stroke="none"
     d="m 429.94815,346.50336 c 5.63761,7.946 11.14286,15.74031 16.63883,23.53896 0.98792,1.40181 1.93757,2.8214 3.05018,4.44477 -4.32191,0.7666 -8.39242,1.49097 -12.46442,2.20973 -1.69865,0.29983 -1.2706,-0.85075 -1.409,-1.47383 -2.08439,-9.38299 -4.1267,-18.77215 -6.17004,-28.34933 0.0788,-0.29981 0.14888,-0.41015 0.35445,-0.3703 z"
     id="path362"
     style="stroke-width:0.517299" />
  <path
     fill="#292929"
     opacity="1"
     stroke="none"
     d="m 366.11565,366.45712 c 4.53344,-4.34005 9.83442,-7.87811 15.27422,-12.37455 0,11.79648 0,22.94541 -0.0677,34.30679 -4.36492,3.20284 -5.64869,3.30631 -11.24277,-0.0302 -4.05559,-2.41892 -6.89503,-5.78696 -8.84848,-9.53693 -1.70905,-3.28079 0.0375,-6.22964 2.16257,-8.9423 0.85801,-1.09525 2.02191,-2.05193 2.72206,-3.42279 z"
     id="path364"
     style="stroke-width:0.517299" />
  <path
     fill="#292b2b"
     opacity="1"
     stroke="none"
     d="m 355.87564,370.06423 c 6.44639,-9.4953 12.86933,-18.7771 19.57681,-28.47008 1.95093,3.38994 3.58743,6.32674 5.33246,9.22042 0.71219,1.18095 -0.50345,1.50881 -1.17616,2.03433 -7.4969,5.85675 -15.02152,11.69014 -22.69882,17.61194 -0.54078,0.17525 -0.83997,0.0868 -1.03429,-0.39661 z"
     id="path366"
     style="stroke-width:0.517299" />
  <path
     fill="#292b2b"
     opacity="1"
     stroke="none"
     d="m 428.6145,405.46594 c 2.16059,-8.18814 4.5453,-16.25459 6.75214,-24.35299 0.47371,-1.73826 1.19199,-2.6568 3.55903,-2.90444 3.47817,-0.36387 6.89387,-1.12117 10.93244,-1.813 -6.85466,9.82699 -13.45734,19.2927 -20.18777,28.87837 -0.34985,0.27443 -0.6057,0.3352 -1.05584,0.19206 z"
     id="path368"
     style="stroke-width:0.517299" />
  <path
     fill="#292929"
     opacity="1"
     stroke="none"
     d="m 419.5077,368.73978 c -11.23843,-5.3686 -22.24253,-10.79018 -33.99751,-16.5817 6.2148,-1.62841 11.6823,-3.06102 17.36397,-4.49433 0.70056,0.30733 1.28067,0.39514 1.80396,0.18736 3.17533,-1.26087 6.63676,-1.44429 10.27621,-1.85941 0.53825,-0.0987 0.85169,-0.0992 1.39406,0.011 5.13202,1.51334 8.93488,4.01681 10.45408,8.14515 1.35738,3.68865 3.51628,7.45974 1.05816,11.38849 -1.96247,3.13656 -3.65961,3.72885 -8.35293,3.20341 z"
     id="path370"
     style="stroke-width:0.517299" />
  <path
     fill="#262727"
     opacity="1"
     stroke="none"
     d="m 382.24304,340.43394 c 12.23385,-0.14787 24.29172,-0.17858 36.61525,-0.19024 0.47071,0.078 0.67578,0.13703 0.95529,0.45397 -9.75588,2.813 -19.58616,5.3681 -29.63984,7.93821 -4.31358,-0.70622 -6.47006,-3.15503 -8.25091,-5.92677 -0.46518,-0.724 -0.49227,-1.46468 0.32021,-2.27517 z"
     id="path372"
     style="stroke-width:0.517299" />
  <path
     fill="#272828"
     opacity="1"
     stroke="none"
     d="m 365.8928,366.34179 c 0.52432,1.03356 0.55681,2.2264 -0.46739,2.99764 -2.11861,1.59533 -2.47095,3.7957 -3.32232,5.80448 -0.84665,1.99769 0.37934,3.76775 1.58964,5.43977 2.57152,3.5525 6.08269,6.38316 10.20755,8.7657 1.21661,0.70274 2.28507,0.68456 3.41727,0.10792 1.07837,-0.54923 2.17574,-0.94967 3.70729,-0.85455 0.22981,3.45879 0.22981,6.91856 0.22981,10.11202 -3.22579,-2.44039 -6.68075,-4.89336 -9.90702,-7.53062 -5.51908,-4.51151 -10.83839,-9.18418 -16.36835,-13.68663 -1.49698,-1.21882 -1.25551,-1.85394 0.17399,-2.90769 3.59966,-2.65345 7.0478,-5.4423 10.73953,-8.24804 z"
     id="path374"
     style="stroke-width:0.517299" />
  <path
     fill="#2a2d2d"
     opacity="1"
     stroke="none"
     d="m 380.44962,407.03253 c 2.84816,-3.89012 2.8238,-3.81391 7.94561,-2.73536 9.24042,1.94584 18.5134,3.78975 27.77192,5.67906 0.72465,0.14786 1.44251,0.31772 2.12913,0.75522 -13.35281,0 -26.70565,0 -40.21789,0 0.21457,-1.36737 1.48578,-2.36755 2.37123,-3.69892 z"
     id="path376"
     style="stroke-width:0.517299" />
  <path
     fill="#282b2b"
     opacity="1"
     stroke="none"
     d="m 377.59742,407.06252 c -0.67745,0.83259 -1.23248,1.52199 -2.02962,2.51217 -6.38533,-9.11861 -12.59485,-17.98618 -18.80439,-26.85376 0.12239,-0.0926 0.24478,-0.18529 0.36717,-0.27793 1.34658,1.01441 2.75248,1.98217 4.02962,3.05123 5.97313,4.99987 11.83638,10.08822 17.90985,15.00583 1.65845,1.34281 2.13594,2.31618 0.53318,3.82536 -0.79444,0.74806 -1.26585,1.7221 -2.00581,2.7371 z"
     id="path378"
     style="stroke-width:0.517299" />
  <path
     fill="#2a2b2b"
     opacity="1"
     stroke="none"
     d="m 418.33253,387.13001 c 0.99856,1.13324 2.43245,1.34114 3.83815,1.60936 1.45721,0.27805 2.7813,0.7465 3.10381,2.09915 0.7819,3.27921 0.53135,6.35778 -1.68597,9.38208 -2.63339,3.59185 -8.71051,4.76948 -14.53546,3.55837 -0.92471,-0.19225 -1.84616,-0.42731 -2.72472,-0.72803 -4.81591,-1.64846 -5.58173,-3.18018 -3.69831,-7.23381 0.20021,-0.4309 0.28931,-0.8958 0.4431,-1.52885 4.89958,-2.68161 9.90964,-5.0031 15.2594,-7.15827 z"
     id="path380"
     style="stroke-width:0.517299" />
  <path
     fill="#272828"
     opacity="1"
     stroke="none"
     d="m 419.42175,368.90546 c 0.63912,-0.3836 1.40653,-0.70513 2.21742,-0.91708 4.84043,-1.26516 7.00304,-4.13461 5.97712,-8.20398 -0.47591,-1.88769 -1.20071,-3.73601 -1.86249,-5.59047 -1.36563,-3.82686 -4.79642,-5.96556 -9.31709,-7.42485 1.10748,-2.19276 3.11243,-1.18244 4.55523,-0.58854 2.44598,1.00681 4.54499,2.44544 5.57317,4.6994 0.38611,0.84639 0.89475,1.69122 1.62856,2.6242 1.22968,2.87864 1.43784,5.74875 2.10142,8.54872 0.85613,3.6123 1.6662,7.232 2.45459,10.85449 0.17799,0.81773 0.54424,1.64473 0.0818,2.80811 -4.48607,-2.26556 -8.87374,-4.48142 -13.40977,-6.81 z"
     id="path382"
     style="stroke-width:0.517299" />
  <path
     fill="#262727"
     opacity="1"
     stroke="none"
     d="m 404.32714,405.64352 c 0.97595,-1.89123 2.7743,-1.19633 4.32737,-0.8234 8.01266,1.92407 13.67998,-0.0524 17.54382,-6.18423 0.46642,-0.74023 0.73771,-1.61459 1.98611,-2.06202 -0.9303,3.46897 -2.28669,6.94687 -2.69736,10.58994 -0.23302,2.06722 -1.23894,2.61365 -3.88312,2.00069 -5.64553,-1.30871 -11.4096,-2.2806 -17.27682,-3.52098 z"
     id="path384"
     style="stroke-width:0.517299" />
  <path
     fill="#262727"
     opacity="1"
     stroke="none"
     d="m 428.35566,353.46004 c -1.60238,-0.20852 -1.83607,-1.53238 -2.70326,-2.41543 -2.35444,-2.3975 -4.72679,-4.72269 -9.19675,-4.46361 -0.41752,0.0765 -0.6728,0.0766 -1.11957,0.0766 -1.28328,-0.004 -2.40626,0.039 -2.71646,-1.31469 3.79347,-1.25246 7.61855,-2.27533 11.39392,-3.40746 1.41628,-0.4247 1.88308,-0.26562 2.2005,1.019 0.84611,3.42421 0.9148,6.953 2.14162,10.5056 z"
     id="path386"
     style="stroke-width:0.517299" />
  <path
     fill="#272828"
     opacity="1"
     stroke="none"
     d="m 419.97014,383.50294 c -0.0519,-0.57301 -0.0339,-1.22233 0.29233,-1.74487 1.71142,-2.74122 1.37446,-5.4487 0.006,-8.18242 -0.24262,-0.48499 -0.31287,-1.02679 -0.4612,-1.73334 3.09556,1.30136 6.19707,2.78371 9.27957,4.2916 1.03986,0.50867 2.0316,1.08215 3.44657,1.84127 -4.24324,2.03343 -8.17711,3.93918 -12.56413,5.52776 z"
     id="path388"
     style="stroke-width:0.517299" />
  <path
     fill="#272828"
     opacity="1"
     stroke="none"
     d="m 382.16877,340.27765 c 0.65326,2.92736 2.99777,4.78984 5.48982,6.57523 0.69946,0.50111 1.39274,1.00793 2.19031,1.65509 0.0426,0.20367 -2e-4,0.29183 -0.0771,0.32122 -6.09711,2.32915 -6.10723,2.33263 -8.98018,-2.57164 -1.09228,-1.8646 -2.12727,-3.75131 -3.40952,-6.01902 1.79869,0 3.16758,0 4.78672,0.0392 z"
     id="path390"
     style="stroke-width:0.517299" />
  <path
     fill="#262727"
     opacity="1"
     stroke="none"
     d="m 392.94543,396.04504 c -2.91544,1.53085 -5.71204,2.8833 -8.96479,4.45633 0,-3.17996 0,-5.92885 0.0628,-8.89085 0.94874,-0.87315 1.86258,-0.93481 2.8982,-0.3982 1.66199,0.86117 3.19398,1.86791 5.14751,2.3779 1.19643,0.31235 1.63474,1.23666 0.85625,2.45482 z"
     id="path392"
     style="stroke-width:0.517299" />
  <path
     fill="#262727"
     opacity="1"
     stroke="none"
     d="m 384.304,362.62298 c -0.19535,-2.88598 -0.19535,-5.65289 -0.19535,-8.55859 3.29425,0.69462 5.45013,2.91533 8.57639,4.00064 0.85246,1.48987 0.29633,2.35933 -1.4051,2.81427 -1.45782,0.3898 -2.80383,0.98723 -4.12824,1.5977 -0.87528,0.40346 -1.67915,0.74624 -2.8477,0.14598 z"
     id="path394"
     style="stroke-width:0.517299" />
  <path
     fill="#292929"
     opacity="1"
     stroke="none"
     d="m 384.04482,362.69877 c 3.0949,-1.28594 6.76739,-1.46367 8.71144,-4.33778 2.14257,0.85011 4.23603,1.86541 6.45945,3.0132 -2.05131,0.76549 -3.91254,-0.99438 -6.43223,-0.10515 -2.55004,0.89996 -5.12827,1.44015 -6.7645,3.45427 -0.25528,0.31421 -0.98295,0.37561 -1.70112,0.56531 -0.25159,-0.79072 -0.29421,-1.59285 -0.27304,-2.58985 z"
     id="path400"
     style="stroke-width:0.517299" />
  <path
     fill="#292929"
     opacity="1"
     stroke="none"
     d="m 393.03098,396.18532 c -0.22069,-1.54265 -1.4493,-2.21169 -3.10151,-2.73247 -1.84251,-0.58074 -3.29257,-1.87217 -5.60688,-2.04447 -0.25855,-0.81299 -0.3008,-1.61499 -0.28022,-2.61213 0.73185,-0.16639 1.49861,-0.17582 1.89585,0.297 3.02594,3.6017 7.43843,4.47568 12.72947,4.27365 -1.61477,0.94624 -3.52354,1.86326 -5.63671,2.81842 z"
     id="path402"
     style="stroke-width:0.517299" />
  <path
     fill="#272828"
     opacity="1"
     stroke="none"
     d="m 412.39853,345.16509 c 0.95528,0.42469 1.70133,0.85773 2.59673,1.39163 -3.37807,0.83257 -7.15103,0.58727 -10.54539,1.88701 -0.40818,0.1563 -0.89615,-0.1512 -1.27324,-0.63649 2.94537,-0.97407 5.97903,-1.80394 9.2219,-2.64215 z"
     id="path406"
     style="stroke-width:0.517299" />
  <path
     fill="#292929"
     opacity="1"
     stroke="none"
     d="m 409.11992,388.80577 c -0.19214,-2.15016 1.21374,-2.71404 3.83113,-2.03668 -1.07271,0.7089 -2.35338,1.34816 -3.83113,2.03668 z"
     id="path410"
     style="stroke-width:0.517299" />
  <path
     fill="#475757"
     opacity="1"
     stroke="none"
     d="m 428.37512,405.49918 c 0.32053,-0.12819 0.56218,-0.11288 0.98565,-0.10147 -0.0321,0.81215 -0.48154,1.50597 -1.36282,2.00473 -0.38077,-0.6651 0.22324,-1.18129 0.37717,-1.90326 z"
     id="path412"
     style="stroke-width:0.517299" />
  <path
     fill="#282b2b"
     opacity="1"
     stroke="none"
     d="m 432.63681,381.99114 c -0.6361,0.004 -1.08914,-0.19405 -1.3836,-0.78145 0.33737,-0.57314 1.00867,-0.99971 1.48886,-0.76201 0.55969,0.27705 0.14857,0.92973 -0.10526,1.54346 z"
     id="path414"
     style="stroke-width:0.517299" />
  <path
     fill="#292929"
     opacity="1"
     stroke="none"
     d="m 384.05151,369.67608 c 1.2726,0.25962 1.58291,0.81999 0.23607,1.62869 -0.21572,-0.44603 -0.25653,-0.94603 -0.23607,-1.62869 z"
     id="path416"
     style="stroke-width:0.517299" />
  <path
     fill="#475757"
     opacity="1"
     stroke="none"
     d="m 420.05429,340.9722 c -0.29997,-0.12751 -0.43363,-0.23839 -0.74884,-0.52938 0.58906,-0.24996 1.38622,-0.5241 2.07783,0.0135 -0.38756,0.17752 -0.77512,0.35504 -1.32899,0.51595 z"
     id="path418"
     style="stroke-width:0.517299" />
  <path
     fill="#475757"
     opacity="1"
     stroke="none"
     d="m 355.69997,370.00874 c 0.3724,0.009 0.54565,0.17673 0.88435,0.43915 -0.17329,0.49526 -0.53701,1.08149 -1.1981,0.8147 -0.65427,-0.26404 -0.0296,-0.72668 0.31375,-1.25385 z"
     id="path420"
     style="stroke-width:0.517299" />
  <path
     fill="#475757"
     opacity="1"
     stroke="none"
     d="m 430.09559,346.53065 c -0.0119,0.12292 -0.24912,0.17283 -0.37109,0.16319 -0.11396,-0.19336 -0.10594,-0.37709 -0.098,-0.56082 0.16031,0.0916 0.32062,0.18314 0.46902,0.39763 z"
     id="path422"
     style="stroke-width:0.517299" />
  <path
     fill="#475757"
     opacity="1"
     stroke="none"
     d="m 354.51365,371.76244 c 0.25797,-0.3539 0.31351,-0.89239 0.8897,-0.56872 0.0943,0.0529 -0.006,0.33527 -0.24526,0.60482 -0.36184,0.10482 -0.4962,0.11642 -0.64444,-0.0361 z"
     id="path424"
     style="stroke-width:0.517299" />
  <path
     fill="#475757"
     opacity="1"
     stroke="none"
     d="m 354.82551,371.8159 c -0.18157,0.41722 -0.36765,0.43221 -0.36648,-0.12286 0.0408,-0.0947 0.26136,0.0469 0.36648,0.12286 z"
     id="path426"
     style="stroke-width:0.517299" />
  <path
     fill="#2d2d2d"
     opacity="1"
     stroke="none"
     d="m 418.05703,375.23623 c 1.31472,4.41511 -0.43546,6.807 -6.96805,9.03312 -3.83785,1.30784 -7.08989,3.27798 -10.49804,5.11344 -2.89694,1.56012 -6.53174,2.16912 -9.53688,1.2192 -3.25389,-1.02853 -4.14209,-4.15451 -4.53015,-6.80913 -0.79014,-5.40503 0.34504,-10.78194 1.25209,-16.12486 0.61976,-3.65061 3.94122,-5.18877 8.38132,-4.24191 1.77951,0.37948 3.48101,0.95774 4.86354,1.91006 4.65564,3.20689 10.09896,5.4806 14.96373,8.43547 0.68155,0.41397 1.5214,0.65679 2.07244,1.46461 z"
     id="path428"
     style="stroke-width:0.517299" />
  <path
     fill="#2c2c2c"
     opacity="1"
     stroke="none"
     d="m 379.21339,380.22587 c 0.10607,2.3048 -1.00696,4.07025 -2.37381,5.78535 -0.6387,0.80142 -1.34542,1.2371 -2.57856,1.05142 -5.38962,-0.81155 -11.69088,-9.12124 -10.09386,-13.34268 1.54015,-4.07118 6.09317,-7.19802 10.09504,-7.02789 1.75115,0.0744 2.5747,0.76975 3.40451,2.01002 2.20391,3.29404 1.25125,6.76169 1.3314,10.1815 0.008,0.38426 0.11572,0.76699 0.21528,1.34228 z"
     id="path430"
     style="stroke-width:0.517299" />
  <path
     fill="#2c2d2d"
     opacity="1"
     stroke="none"
     d="m 424.35411,353.73705 c 1.31716,2.2994 1.48251,4.66056 2.14238,6.91172 0.68881,2.34992 -0.96625,4.51257 -3.09846,5.63444 -2.31086,1.21586 -5.39963,0.55844 -7.54227,-0.8451 -3.46273,-2.26825 -7.28658,-3.95666 -11.2018,-5.58935 -3.46927,-1.44671 -4.79602,-4.13309 -3.75452,-7.23215 0.1202,-0.35765 0.32633,-0.76982 0.65871,-0.99579 4.22036,-2.86935 11.85305,-4.83208 17.415,-2.76033 2.69658,1.00444 3.85661,2.9016 5.38096,4.87656 z"
     id="path432"
     style="stroke-width:0.517299" />
  <path
     fill="#2c2d2d"
     opacity="1"
     stroke="none"
     d="m 423.74532,396.38554 c -1.82103,5.91337 -5.08245,6.75511 -11.18921,6.44641 -2.2295,-0.11271 -4.58414,-0.30578 -6.16845,-1.98813 -0.68241,-0.72465 -1.23319,-1.41768 -0.66262,-2.30857 1.65685,-2.58697 3.67464,-4.88226 7.35838,-5.78595 0.63158,-0.15496 1.25709,-0.36296 1.83415,-0.62175 5.59687,-2.51013 8.78009,-1.05152 8.82775,4.25799 z"
     id="path434"
     style="stroke-width:0.517299" />
  <path
     fill="#303030"
     opacity="1"
     stroke="none"
     d="m 392.91567,386.71741 c -1.55063,-1.03237 -1.92749,-2.24142 -1.90463,-3.64235 0.0558,-3.41596 0.0151,-6.83294 0.0178,-10.2495 0.004,-4.82504 3.66414,-6.73686 8.91169,-4.25143 4.01665,1.90243 7.88498,4.06593 11.73977,6.20121 2.53174,1.40241 2.49019,3.54987 0.40105,5.36056 -1.57973,1.36917 -3.28615,2.49701 -5.53693,3.19303 -2.20917,0.68318 -4.19142,1.84094 -6.30008,2.74944 -2.25289,0.97065 -4.59276,1.5374 -7.3287,0.63904 z"
     id="path436"
     style="stroke-width:0.517299" />
  <path
     fill="#2e2e2f"
     opacity="1"
     stroke="none"
     d="m 368.85453,380.58422 c -4.9802,-3.11683 -2.94168,-8.89536 1.98006,-10.50384 1.90271,-0.62183 3.04967,-0.35218 3.5512,1.41363 0.60718,2.13775 0.59844,4.2885 0.56095,6.44969 -0.0641,3.68984 -1.8973,4.53746 -6.09221,2.64052 z"
     id="path438"
     style="stroke-width:0.517299" />
  <path
     fill="#2f2f2f"
     opacity="1"
     stroke="none"
     d="m 421.83757,355.82274 c 0.0689,1.03837 0.21818,1.90449 0.0684,2.73503 -0.44288,2.45437 -1.80962,3.13576 -4.7612,2.60226 -4.45136,-0.80457 -7.58556,-3.17141 -10.43051,-5.82203 -1.34441,-1.25258 -0.14419,-3.25314 2.337,-4.20998 3.71823,-1.4339 8.53416,-0.62713 11.24825,1.78655 0.90386,0.80383 1.16817,1.74975 1.53815,2.90817 z"
     id="path440"
     style="stroke-width:0.517299" />
  <path
     fill="#2e2e2f"
     opacity="1"
     stroke="none"
     d="m 418.21557,393.56065 c 2.45997,0.62964 2.59462,2.207 2.37619,3.62701 -0.30801,2.00236 -1.98572,3.32494 -4.36477,3.84032 -1.05558,0.22866 -2.30231,0.19964 -3.37249,-0.0118 -1.82664,-0.36089 -3.41212,-1.2823 -3.81825,-2.80512 -0.44884,-1.68289 1.44165,-2.27188 2.90487,-2.66155 2.09884,-0.55895 3.37461,-2.70801 6.27445,-1.98886 z"
     id="path442"
     style="stroke-width:0.517299" />
</svg>
