<svg version="1.1" id="Layer_1" xmlns="http://www.w3.org/2000/svg" xmlns:xlink="http://www.w3.org/1999/xlink" x="0px" y="0px"
	 width="100%" viewBox="0 0 197 197" enable-background="new 0 0 197 197" xml:space="preserve">
<path fill="#313131" opacity="1.000000" stroke="none" 
	d="
M197.694794,120.765152 
	C198.000000,145.285934 197.876892,169.573151 198.125488,193.856537 
	C198.165268,197.742538 196.982880,198.083252 193.658554,198.075531 
	C146.085007,197.964920 98.511124,198.000000 50.468658,198.000000 
	C46.992958,196.572739 44.222454,195.047089 42.733139,191.675369 
	C41.967106,189.941132 40.269417,188.342422 38.377861,187.699341 
	C31.542646,185.375488 29.336504,179.473465 26.761032,173.638229 
	C24.709372,168.989777 21.033127,165.300766 18.790449,160.635513 
	C15.235932,153.241379 10.636509,146.318756 7.030093,138.987900 
	C4.541089,133.928421 3.735850,127.923279 1.242516,122.281235 
	C1.000000,120.611107 1.000000,119.222221 1.000000,117.416664 
	C4.318838,115.089951 5.450344,117.777161 6.677177,119.849480 
	C9.037964,123.837219 10.251850,128.388672 12.891769,132.275620 
	C21.825497,145.429413 29.154737,159.512711 36.711693,173.471954 
	C39.240612,178.143372 43.123837,181.964325 46.891514,185.698975 
	C49.621922,188.405441 53.080074,189.949295 57.036449,190.599442 
	C70.226280,192.766953 83.468651,192.077118 96.707939,191.647263 
	C100.535233,191.522980 104.412544,191.092804 108.164375,191.687180 
	C116.878784,193.067764 125.909126,193.832581 134.327087,192.607910 
	C141.754089,191.527405 149.839508,190.454117 156.355972,184.312607 
	C163.003983,178.047119 165.700867,169.928528 170.004517,162.578125 
	C177.441162,149.876709 184.061905,136.707611 191.565414,124.037628 
	C192.825790,121.909454 194.197189,119.613335 197.694794,120.765152 
z"/>
<path fill="#2C2C2C" opacity="1.000000" stroke="none" 
	d="
M197.756134,87.741898 
	C198.000000,94.354401 198.000000,100.708794 198.000000,107.531601 
	C196.387070,112.518166 194.598251,116.947685 191.420929,121.071594 
	C191.134628,121.583641 190.999496,121.777672 190.592163,122.199448 
	C184.407623,127.127106 182.806259,134.529266 179.127151,140.617279 
	C177.617416,143.115509 176.432373,145.759323 174.613342,148.165024 
	C171.918671,151.728714 170.778915,156.120865 169.713043,160.814163 
	C169.579834,161.382339 169.532806,161.610153 169.342117,162.153442 
	C168.011566,163.749069 166.590439,164.890182 166.562134,167.208496 
	C166.518906,168.001938 166.446320,168.450409 166.177994,169.203842 
	C162.368546,173.252609 159.959946,177.931595 156.546753,182.264923 
	C156.252853,183.030548 156.002502,183.424805 155.440018,184.026764 
	C154.401245,184.775406 153.583221,185.230743 152.620300,186.085541 
	C152.090668,186.331985 151.865311,186.398621 151.292374,186.514618 
	C147.947968,187.179840 145.095230,188.121292 142.412033,190.344604 
	C141.150101,190.822952 140.195984,191.035782 138.843445,191.042480 
	C137.290512,190.753632 136.119904,190.795700 134.635498,191.340729 
	C133.845306,191.612152 133.380356,191.701569 132.550827,191.696655 
	C130.884598,191.183273 129.556854,191.013611 127.856323,191.596527 
	C127.021988,191.729645 126.537140,191.697388 125.698891,191.493042 
	C121.372566,190.209778 117.371056,190.111694 112.935860,191.100769 
	C111.396484,191.191437 110.264702,191.152435 108.735413,190.764191 
	C106.299675,189.702011 104.140678,189.463882 101.973358,189.540100 
	C90.211754,189.953781 78.446999,188.131012 66.259850,189.646973 
	C64.997795,189.794907 64.182549,190.038483 62.938354,189.956406 
	C56.123146,187.405014 48.978882,186.242813 44.518143,180.121796 
	C40.720646,174.910889 37.738647,169.229706 34.575329,163.626373 
	C28.414049,152.712585 22.643236,141.510406 14.131377,131.671280 
	C13.644669,131.308914 13.451435,131.163025 13.032192,130.735626 
	C12.227571,128.943909 11.731616,127.381142 10.019302,126.182907 
	C9.376754,125.094536 8.838532,124.332657 8.432690,123.130356 
	C8.084888,121.193680 7.203388,119.930069 5.918630,118.499123 
	C5.500179,117.808083 5.317326,117.382797 5.118773,116.595055 
	C3.461174,112.120995 2.453712,107.824799 1.236447,103.260544 
	C1.000000,99.969406 1.000000,96.938812 1.000000,93.454109 
	C3.475983,82.391464 9.989904,74.023201 16.399452,65.208755 
	C16.914927,64.097626 17.582594,63.488697 18.115971,62.413857 
	C18.339684,61.928024 18.430851,61.734013 18.699310,61.273689 
	C19.286797,60.539227 19.722788,60.090042 20.118084,59.221436 
	C20.372604,58.753757 20.488194,58.573353 20.814896,58.150566 
	C22.072578,57.154751 22.908926,56.238926 23.379625,54.662132 
	C23.531744,54.142780 23.597143,53.934956 23.827045,53.442905 
	C24.898809,52.235535 25.862127,51.353428 26.354958,49.742577 
	C26.511438,49.214737 26.574175,49.002598 26.797791,48.499149 
	C27.845631,47.258488 28.848764,46.394516 29.342953,44.773140 
	C29.496975,44.245804 29.558804,44.034103 29.775574,43.529270 
	C30.766230,42.270241 31.842073,41.481155 32.267040,39.844738 
	C32.382751,39.316669 32.426834,39.103954 32.583450,38.585472 
	C32.966549,37.701138 33.308689,37.159317 33.699196,36.279110 
	C34.066566,35.620033 34.289928,35.248848 34.660263,34.581978 
	C35.877983,33.225525 37.072834,32.237251 37.083405,30.180683 
	C40.263573,22.893232 44.525475,16.806334 50.887012,11.887251 
	C53.107738,11.140056 54.809364,10.194469 56.723839,8.830758 
	C57.602787,8.591414 58.128128,8.533603 59.069290,8.483454 
	C60.046036,8.418530 60.610317,8.374307 61.614014,8.279758 
	C67.003136,8.806530 72.201302,7.296244 76.830078,8.438931 
	C82.489624,9.836078 88.118332,10.010373 93.504845,9.243651 
	C103.276680,7.852715 113.160774,8.656167 123.312042,6.954664 
	C124.630539,6.860736 125.500679,6.768316 126.788177,6.588948 
	C129.704376,6.459309 132.198776,6.514525 135.097702,6.505962 
	C136.838715,6.457467 138.132721,6.738050 139.811630,7.039008 
	C150.667892,8.395514 157.467224,14.868446 162.630280,23.397934 
	C165.449615,28.055542 168.454285,32.662750 169.870499,38.050858 
	C170.348557,39.869717 171.821213,41.054035 173.147903,42.327347 
	C175.449295,44.536110 177.099792,47.212994 178.359375,50.522022 
	C178.669052,51.723820 179.092941,52.506416 179.573853,53.616219 
	C180.411057,55.266617 180.996445,56.692429 182.215027,58.120018 
	C182.896378,60.805897 183.619080,63.087646 186.111786,64.721527 
	C187.657120,66.120590 187.316513,67.979889 188.337982,69.635712 
	C188.865051,71.438080 189.402206,72.848915 190.913696,74.078140 
	C191.232544,74.528503 191.337708,74.723724 191.536713,75.235184 
	C191.971313,76.880112 192.785614,77.872711 194.082504,78.940498 
	C197.262863,81.230560 195.738022,84.994446 197.756134,87.741898 
z"/>
<path fill="#313131" opacity="1.000000" stroke="none" 
	d="
M1.000000,122.468658 
	C5.418538,124.587036 7.017580,128.994049 7.845478,133.573303 
	C8.364464,136.443909 8.475365,139.180511 11.351709,140.813995 
	C11.887276,141.118149 12.459660,141.726852 12.602264,142.298065 
	C14.689528,150.658524 19.711788,157.760590 24.027285,164.810226 
	C27.322752,170.193558 29.493513,176.169754 33.210693,181.259552 
	C33.796310,182.061401 34.364422,183.281250 35.145233,183.472504 
	C42.711220,185.325806 45.439049,192.182922 49.893013,197.679474 
	C34.886608,198.000000 19.771315,197.873093 4.661307,198.099243 
	C1.348185,198.148834 0.918568,197.114029 0.933227,194.185837 
	C1.052119,170.436813 1.000000,146.686935 1.000000,122.468658 
z"/>
<path fill="#333333" opacity="1.000000" stroke="none" 
	d="
M1.292536,68.233261 
	C1.000000,46.751095 1.062935,25.501772 0.922289,4.253795 
	C0.904213,1.522948 1.418694,0.875647 4.222198,0.915572 
	C17.500069,1.104665 30.782120,1.000000 44.531342,1.000000 
	C46.368679,2.654257 45.763027,4.232021 44.498615,5.448417 
	C33.486885,16.041964 27.657745,30.004177 20.104233,42.840996 
	C15.554622,50.572830 10.960680,58.278236 6.374629,65.988182 
	C5.339167,67.728981 4.092520,69.407852 1.292536,68.233261 
z"/>
<path fill="#333333" opacity="1.000000" stroke="none" 
	d="
M156.767670,1.295064 
	C169.613663,1.000000 182.229477,1.124957 194.839371,0.906966 
	C197.775696,0.856205 198.084656,1.711966 198.068390,4.314194 
	C197.943802,24.229721 198.000000,44.146378 198.000000,64.531342 
	C194.788696,66.853096 193.364807,64.463371 192.218018,62.289391 
	C185.565536,49.678135 177.242874,38.012833 171.329590,24.974838 
	C168.100067,17.854187 164.107269,11.151615 158.022034,5.968657 
	C156.677841,4.823766 155.859589,3.446866 156.767670,1.295064 
z"/>
<path fill="#313131" opacity="1.000000" stroke="none" 
	d="
M156.531342,0.999997 
	C157.474503,1.850703 157.739944,2.992396 158.456009,3.506842 
	C165.185455,8.341479 169.342499,15.178548 172.637543,22.453308 
	C178.899185,36.277645 187.886276,48.558807 194.577637,62.122013 
	C195.178619,63.340199 195.907944,64.440254 197.663391,64.917755 
	C198.000000,67.370560 198.000000,69.741112 198.000000,72.555832 
	C193.756638,75.164223 192.703873,71.350540 191.479156,69.057541 
	C187.648438,61.885399 183.251862,55.062798 179.077698,48.104832 
	C177.901062,46.143456 176.825851,43.998318 174.349030,42.618584 
	C173.607697,42.145348 173.254562,41.791935 172.777481,41.054985 
	C171.165283,30.855295 165.442383,22.989542 160.081299,15.095482 
	C157.119598,10.734423 152.960068,7.142531 146.613113,7.265402 
	C144.383133,7.395205 142.559967,7.088059 140.329376,6.764505 
	C138.828323,6.614317 137.731873,6.509129 136.207306,6.505551 
	C133.230118,6.500775 130.674332,6.493270 127.691147,6.515949 
	C126.694939,6.545598 126.127899,6.589520 125.140045,6.704622 
	C121.638641,7.207111 118.536964,6.894550 115.046043,7.017379 
	C111.859001,6.476258 109.066399,6.331799 105.913322,6.921285 
	C105.345085,7.091510 105.123772,7.168411 104.573753,7.353604 
	C103.818497,7.601557 103.383362,7.702622 102.622757,7.784460 
	C102.104012,7.820154 101.899483,7.824478 101.398468,7.817053 
	C100.911438,7.789183 100.720886,7.773062 100.255058,7.725994 
	C99.802391,7.673857 99.625008,7.652666 99.187798,7.604991 
	C98.757149,7.567913 98.586327,7.557320 98.157959,7.543892 
	C97.725693,7.544905 97.550964,7.548752 97.106644,7.545518 
	C96.652481,7.526356 96.467911,7.514276 95.994736,7.494900 
	C95.505959,7.484040 95.305779,7.480475 94.796532,7.473377 
	C92.069901,7.500972 89.654358,7.462081 86.938019,7.175901 
	C86.434753,7.032905 86.236969,6.974787 85.745361,6.850397 
	C85.258827,6.748400 85.066101,6.712675 84.588531,6.639701 
	C84.116493,6.588782 83.929291,6.575112 83.465981,6.549089 
	C83.008553,6.531755 82.827232,6.526775 82.377556,6.520008 
	C81.932312,6.521058 81.755440,6.523894 81.315720,6.538229 
	C80.879410,6.566513 80.705948,6.583298 80.276245,6.648597 
	C79.852539,6.745489 79.685089,6.793867 79.273300,6.941236 
	C78.865250,7.109411 78.701538,7.178592 78.280212,7.324145 
	C77.845963,7.433385 77.669327,7.466255 77.224495,7.530546 
	C76.776520,7.575431 76.596741,7.588893 76.144386,7.616042 
	C75.687393,7.635621 75.502975,7.641513 75.038666,7.649354 
	C74.376060,7.643352 73.994804,7.614933 73.316109,7.529313 
	C72.820770,7.433130 72.624008,7.377891 72.137428,7.214229 
	C69.551735,6.321117 67.254326,6.354914 64.636353,7.197880 
	C64.092628,7.334137 63.868126,7.365298 63.302193,7.371945 
	C62.520065,7.241918 62.100681,7.082241 61.407265,6.723841 
	C58.882824,5.889508 56.905388,6.428252 54.819290,7.959251 
	C53.960197,8.392446 53.327599,8.475497 52.414352,8.702970 
	C51.572834,9.065553 51.009941,9.298329 50.241402,9.787642 
	C49.823647,10.066626 49.651070,10.169714 49.200119,10.385071 
	C48.165600,10.801223 47.495304,11.245053 46.601677,11.941776 
	C45.360352,12.646082 44.406975,13.192356 43.756161,14.538729 
	C43.429531,15.455404 43.156151,16.033815 42.557350,16.783560 
	C41.892891,17.420301 41.414967,17.802507 40.870644,18.536366 
	C40.611553,18.965153 40.514233,19.140778 40.248505,19.566242 
	C39.556732,20.409992 38.950653,20.939381 38.507023,21.969559 
	C38.289898,22.434698 38.187809,22.615503 37.892586,23.043570 
	C37.120453,23.929665 36.672638,24.647657 36.235168,25.764721 
	C35.817265,26.441549 35.498413,26.765915 34.835754,27.228022 
	C33.470375,27.903301 32.423664,28.470709 31.821737,29.512871 
	C23.457712,43.994213 14.888741,58.357029 6.590807,73.292709 
	C6.391567,73.880981 6.298228,74.114365 5.976764,74.653320 
	C4.485770,75.768944 3.436934,77.164764 1.311449,76.233208 
	C1.000000,73.629440 1.000000,71.258888 1.000000,68.444168 
	C3.217153,67.658722 4.324237,66.073982 5.358559,64.289307 
	C14.317839,48.830479 23.371220,33.426804 31.730387,17.627062 
	C35.004822,11.438021 39.909313,6.523006 44.920776,1.330810 
	C82.020897,1.000000 119.041786,1.000000 156.531342,0.999997 
z"/>
<path fill="#2F2F2F" opacity="1.000000" stroke="none" 
	d="
M131.666672,190.000000 
	C132.444443,190.000000 132.888901,190.000000 133.666672,190.000000 
	C135.206512,189.923492 136.474457,190.235046 137.783524,189.217926 
	C139.067001,189.000168 140.133408,188.999741 141.599686,188.999039 
	C144.409912,186.831696 147.716446,186.819427 150.734695,185.238052 
	C151.166672,184.999924 151.333328,184.999863 151.750000,184.999603 
	C152.524246,184.457062 153.069260,183.935638 153.802505,183.202454 
	C154.262146,182.820572 154.498428,182.611862 154.854431,182.186935 
	C159.365128,178.737610 161.481598,173.765671 164.755814,169.244232 
	C164.999954,168.555695 165.000168,168.111374 165.000488,167.333832 
	C166.359283,165.778290 165.843292,163.509644 167.764343,162.234955 
	C167.999390,161.999863 167.999786,161.499939 167.999893,161.249969 
	C169.624878,159.606628 169.764114,157.546600 170.436935,155.706863 
	C172.993500,148.716263 178.120468,143.140518 181.015228,136.254181 
	C183.190704,131.078873 186.096741,126.110725 189.741760,121.261864 
	C189.999390,120.999695 190.000000,121.000000 190.000000,120.999847 
	C192.066559,119.091255 193.425064,116.663513 194.869186,114.304855 
	C195.473557,113.317749 195.930191,112.216644 197.707764,112.778275 
	C198.000000,115.370560 198.000000,117.741112 198.000000,120.555832 
	C192.274429,123.122528 191.329575,129.062973 188.701447,133.398651 
	C179.878876,147.953354 172.111832,163.136536 163.717865,177.936264 
	C159.654144,185.101166 153.495651,190.517303 144.119843,192.580856 
	C138.164276,193.891602 132.718964,194.369049 126.725906,194.532867 
	C120.006691,194.716537 113.547363,193.398026 106.978607,193.367676 
	C96.924545,193.321213 86.869659,194.101151 76.810822,194.263367 
	C66.259949,194.433517 55.321224,195.090225 46.680912,187.603287 
	C41.351189,182.985016 36.633385,177.594940 33.367157,171.049088 
	C30.423992,165.150681 26.768152,159.609299 23.461611,153.890244 
	C21.569754,150.618042 20.003651,147.165543 18.197325,143.846054 
	C14.015538,136.161240 8.184390,129.390625 5.403742,120.921921 
	C4.829583,119.173271 3.625380,117.711853 1.338711,117.077934 
	C1.000000,114.958336 1.000000,112.916664 1.000000,110.437500 
	C2.637307,108.773079 3.329437,109.946579 4.048905,111.168091 
	C4.884279,112.586388 5.109652,114.349434 6.738365,115.732819 
	C7.000364,116.444130 7.000647,116.888260 7.000956,117.665482 
	C8.109557,118.999687 8.609715,120.437637 9.776933,121.778023 
	C10.245035,122.807030 10.491362,123.613884 10.869202,124.710243 
	C12.307569,126.240562 12.909811,127.887939 13.795797,129.744476 
	C14.000243,129.999390 14.000000,130.000000 14.000217,130.000000 
	C20.338064,137.654587 24.822908,146.504761 30.116499,154.836166 
	C34.538162,161.795273 37.520882,169.515182 42.198174,176.353226 
	C46.900860,183.228394 52.859604,187.482605 61.638893,187.996674 
	C62.749851,188.000183 63.499706,188.000366 64.624481,188.000580 
	C66.543175,189.346741 68.460274,189.157425 70.207512,188.955765 
	C82.849220,187.496628 95.477547,189.887421 108.555130,189.000198 
	C110.066673,189.000244 111.133339,189.000198 112.600006,189.000092 
	C117.013268,190.095169 121.117088,190.083511 125.613380,190.000305 
	C126.444443,190.000336 126.888893,190.000244 127.666672,190.000076 
	C129.111115,190.000000 130.222229,190.000000 131.666672,190.000000 
z"/>
<path fill="#2E2E2F" opacity="1.000000" stroke="none" 
	d="
M139.739258,5.362215 
	C142.040817,5.001335 144.082840,5.000725 146.562439,5.000139 
	C160.879700,11.746499 167.828247,23.869177 172.461731,37.796509 
	C172.668152,38.416965 173.088684,38.953640 173.752258,39.734642 
	C174.179474,40.262100 174.388199,40.498371 174.813080,40.854408 
	C180.593613,48.431629 184.682205,56.791691 189.217758,64.839584 
	C191.965683,69.715546 195.998703,73.895004 197.759857,79.729370 
	C198.000000,82.370560 198.000000,84.741112 198.000000,87.555832 
	C193.763382,87.226074 195.772736,82.538086 193.185760,80.306992 
	C191.889374,79.000549 191.390427,77.561523 190.222504,76.221741 
	C190.000610,75.999695 190.000305,75.499847 190.000153,75.249924 
	C188.889343,74.000481 188.390350,72.561409 187.222473,71.221481 
	C186.468765,69.511276 185.936920,68.023170 185.202530,66.267532 
	C183.260529,64.145218 182.425461,61.790504 181.211380,59.264229 
	C180.135895,57.824879 179.271805,56.649754 178.203552,55.237358 
	C177.271286,54.387836 177.017761,53.575367 177.005463,52.329414 
	C176.312485,50.326099 176.071289,48.166409 174.864502,47.058578 
	C168.286057,41.019650 166.152817,32.374580 161.684250,25.117073 
	C156.673416,16.978891 150.448822,10.903674 140.371582,9.073719 
	C139.168716,8.011909 138.869324,6.939501 139.739258,5.362215 
z"/>
<path fill="#2E2E2F" opacity="1.000000" stroke="none" 
	d="
M28.222370,48.778255 
	C28.000423,49.000263 28.000221,49.500130 28.000111,49.750065 
	C26.889286,50.999416 26.390190,52.438366 25.222385,53.778259 
	C25.000444,54.000271 25.000235,54.500137 25.000118,54.750069 
	C23.889282,55.999420 23.390190,57.438381 22.222342,58.778252 
	C22.000385,59.000248 22.000156,59.500046 22.000040,59.749947 
	C21.457277,60.523930 20.935867,61.069115 20.202740,61.802624 
	C20.000380,62.000252 20.000158,62.500069 20.000042,62.749977 
	C19.457270,63.523937 18.935875,64.069107 18.202822,64.802658 
	C17.212343,68.581253 14.294399,70.768944 12.241142,73.468262 
	C7.733823,79.393837 5.353815,86.424416 1.321837,92.873924 
	C1.000000,90.299988 1.000000,87.599968 1.000000,84.449982 
	C6.153120,74.375122 12.833268,65.697334 18.235163,56.228119 
	C24.220276,45.736546 30.499264,35.410660 36.163082,24.338392 
	C38.911407,20.839094 41.735878,17.812498 43.639187,13.705240 
	C43.850555,13.161938 43.969643,12.958537 44.354561,12.521024 
	C45.477692,11.918844 46.474125,11.793499 47.294304,10.653002 
	C47.780735,10.305741 48.005512,10.209664 48.594837,10.050720 
	C49.957920,9.778325 50.949978,9.631306 52.115261,10.576012 
	C52.570568,11.357449 52.597530,11.860401 52.226624,12.686281 
	C45.999874,17.490612 41.643463,23.203341 39.070564,30.647236 
	C37.889580,31.999582 37.390083,33.438164 36.222618,34.778332 
	C36.000561,35.444740 36.000359,35.889057 36.000011,36.666611 
	C35.457272,37.523956 34.935856,38.069111 34.202778,38.802635 
	C34.000439,39.000271 34.000225,39.500137 34.000114,39.750069 
	C32.889282,40.999413 32.390190,42.438370 31.222378,43.778259 
	C31.000433,44.000267 31.000229,44.500134 31.000114,44.750069 
	C29.889280,45.999413 29.390194,47.438374 28.222370,48.778255 
z"/>
<path fill="#2F2F2F" opacity="1.000000" stroke="none" 
	d="
M36.405926,24.009241 
	C37.028217,26.087341 36.134636,27.887724 35.168900,29.640749 
	C25.137449,47.849995 14.725219,65.829262 2.821911,82.901093 
	C2.554640,83.284416 2.038960,83.494545 1.319578,83.892731 
	C1.000000,82.611107 1.000000,81.222221 1.000000,79.416664 
	C2.352735,77.618057 3.440354,76.029175 4.773779,74.227867 
	C5.000195,74.000305 5.000442,73.500336 5.000504,73.250351 
	C13.150208,61.106056 19.990753,48.431656 27.131790,35.934650 
	C29.012548,32.643276 30.730072,29.217453 33.745796,26.254982 
	C34.262299,25.820724 34.498550,25.611959 34.854561,25.187027 
	C35.257290,24.661793 35.528358,24.334997 36.405926,24.009241 
z"/>
<path fill="#303030" opacity="1.000000" stroke="none" 
	d="
M198.000000,79.562500 
	C196.016113,79.506485 195.096664,77.846497 194.241226,76.287560 
	C187.905609,64.741600 180.844635,53.595139 175.079651,41.345612 
	C176.632233,41.240509 177.548340,42.309105 178.336884,43.667500 
	C182.897003,51.522980 187.538208,59.331528 192.074142,67.200813 
	C193.407394,69.513832 194.574799,71.892006 197.662781,72.923508 
	C198.000000,75.041664 198.000000,77.083336 198.000000,79.562500 
z"/>
<path fill="#2E2E2F" opacity="1.000000" stroke="none" 
	d="
M6.927154,115.641197 
	C3.453443,115.707024 4.345307,111.298416 1.321469,110.111290 
	C1.000000,107.958336 1.000000,105.916664 1.000000,103.437500 
	C5.060241,106.088989 4.265057,111.492241 6.927154,115.641197 
z"/>
<path fill="#2D2D2D" opacity="1.000000" stroke="none" 
	d="
M198.000000,112.583336 
	C194.233734,114.376564 194.434021,119.464043 190.333069,120.919388 
	C192.282410,116.646011 194.302307,112.141281 197.674469,108.113663 
	C198.000000,109.388893 198.000000,110.777779 198.000000,112.583336 
z"/>
<path fill="#303030" opacity="1.000000" stroke="none" 
	d="
M4.691916,74.093765 
	C4.528105,76.055481 3.968835,78.050552 1.331346,78.920639 
	C1.000000,78.250000 1.000000,77.500000 1.000001,76.375000 
	C2.127881,75.395744 3.255759,74.791489 4.691916,74.093765 
z"/>
<path fill="#A9E5E9" opacity="1.000000" stroke="none" 
	d="
M33.886135,54.500481 
	C40.379604,43.810623 46.658215,33.283436 52.583797,22.561153 
	C54.392094,19.289053 56.258419,17.823896 60.219795,17.906195 
	C73.821594,18.188776 87.433365,17.991842 101.442078,17.888718 
	C108.404022,15.152595 115.231697,15.741682 122.503769,16.194696 
	C128.782425,16.752712 134.610733,16.418629 140.886612,16.427620 
	C143.752350,16.006500 146.136688,15.768936 148.389816,18.012051 
	C154.064087,27.813051 159.007324,37.571411 165.089386,47.098190 
	C169.282516,54.084118 172.880692,60.981525 176.506561,67.873085 
	C180.509918,75.482109 185.577118,82.499336 189.886047,89.967651 
	C193.055771,95.461449 193.233276,100.384102 189.974792,105.840378 
	C180.809769,121.187004 171.679459,136.559158 163.402176,152.414429 
	C162.708664,153.742920 162.039124,155.080200 160.698776,156.420013 
	C156.687378,163.651642 152.712692,170.481094 148.365875,177.570358 
	C147.314651,178.804428 146.309052,179.319626 144.636993,179.437531 
	C132.026550,181.309341 119.849007,179.335480 107.236786,179.755096 
	C104.842392,180.379807 102.840500,180.287094 100.853264,180.301437 
	C87.243279,180.399780 73.631836,179.935165 60.024391,180.299911 
	C55.088570,180.432205 52.090931,178.234726 49.772099,173.967499 
	C44.945969,165.086243 40.621887,155.915512 34.749229,147.150818 
	C32.294014,141.618835 28.934433,137.067810 26.222481,132.154861 
	C20.709641,122.167824 14.720629,112.444016 9.751932,102.151505 
	C8.220942,98.980110 8.465899,96.162109 9.933803,93.141556 
	C13.917389,84.944412 19.233109,77.492821 23.317802,68.940674 
	C26.367428,63.609932 29.647860,58.880066 33.886135,54.500481 
z"/>
<path fill="#292929" opacity="1.000000" stroke="none" 
	d="
M35.794838,144.739517 
	C41.708305,154.762833 47.428986,164.503555 52.907158,174.378784 
	C54.376156,177.026886 56.014835,178.094574 59.117947,178.062683 
	C74.434631,177.905289 89.753960,178.005188 105.534256,178.097290 
	C108.217705,179.507416 110.748383,179.639008 113.174332,179.600220 
	C123.583023,179.433914 134.102325,182.505386 144.696686,178.385742 
	C145.617188,177.595825 146.230499,177.035355 147.058273,176.242432 
	C153.695999,171.063858 157.165649,164.324478 158.950180,156.286926 
	C168.456177,138.872986 177.825577,121.654770 187.801743,104.795609 
	C190.732071,99.843544 190.845551,96.261673 187.892776,91.339005 
	C179.518814,77.378441 171.719421,63.073223 163.567139,48.565193 
	C163.753891,43.004272 160.089874,39.377697 157.961411,35.210636 
	C155.267853,29.937214 153.046097,24.227386 147.799561,20.278175 
	C146.484726,18.141441 144.725372,17.792124 142.359192,17.905281 
	C135.924820,15.368555 129.757065,16.272366 123.290115,17.581184 
	C116.215935,17.871387 109.436630,17.921644 102.250076,17.885824 
	C102.227867,15.518391 103.985603,15.117961 105.865173,14.770840 
	C116.844772,12.743134 127.884262,11.319802 139.073105,12.064497 
	C147.135925,12.601133 152.544632,17.726782 156.748474,23.839071 
	C165.920517,37.175018 171.302078,52.450813 178.162445,66.978821 
	C180.887634,72.749916 184.521637,78.436981 188.955902,82.976402 
	C195.907364,90.092674 196.042648,104.388069 190.158752,111.726768 
	C177.573502,127.423737 170.752518,146.006531 162.144852,163.718811 
	C159.665009,168.821655 156.804565,173.566101 152.865143,177.807922 
	C147.434753,183.655197 140.783920,185.737503 133.214478,185.993607 
	C119.386086,186.461472 105.728500,183.375916 92.002899,183.558304 
	C83.688293,183.668808 75.519600,180.976303 66.967529,183.512650 
	C58.656986,185.977386 50.636925,181.045975 46.086273,173.404068 
	C43.270576,168.675674 41.708225,163.399246 39.111122,158.725861 
	C34.860214,151.076477 29.269732,144.181351 24.419601,136.852066 
	C20.489746,130.913437 15.465033,125.641792 13.069506,118.350601 
	C15.657538,116.368896 16.888433,118.336105 18.145350,120.089615 
	C22.088844,125.591095 25.619469,131.365234 29.293173,137.045181 
	C31.060787,139.778107 32.273830,142.991974 35.794838,144.739517 
z"/>
<path fill="#2A2B2B" opacity="1.000000" stroke="none" 
	d="
M36.025978,144.626984 
	C33.624542,145.087677 32.187263,143.686844 30.841419,141.812347 
	C25.164162,133.905075 19.382004,126.073143 13.318376,118.105911 
	C12.096572,116.201210 11.194613,114.404259 10.145819,112.306068 
	C9.191607,111.329803 8.830363,110.371635 8.193375,109.231918 
	C7.999082,107.611694 7.998737,106.224930 7.998298,104.422134 
	C7.560193,103.610413 7.207402,103.158318 7.025075,102.286087 
	C7.077809,98.583038 6.649296,95.128197 7.915996,91.404396 
	C8.016854,90.405029 8.198067,89.866135 8.790696,89.198029 
	C8.998815,88.551849 8.998858,88.108978 8.999084,87.333969 
	C10.110172,86.000687 10.610643,84.561165 11.777735,83.218437 
	C11.999220,82.995552 11.999043,82.498764 11.999144,82.250366 
	C12.542418,81.476646 13.064464,80.930367 13.797239,80.194084 
	C13.999161,79.995346 13.999005,79.498627 13.999117,79.250275 
	C15.895555,77.467995 16.754982,75.085190 18.768440,73.226852 
	C18.999201,72.995461 18.999031,72.498657 18.999134,72.250259 
	C20.818100,70.759186 21.625891,67.878326 24.902493,68.801163 
	C21.053066,77.897575 16.493097,86.503494 11.599073,94.935616 
	C10.717129,96.455154 9.559659,97.767494 10.868875,99.888313 
	C19.803961,114.362396 26.522575,130.093994 36.025978,144.626984 
z"/>
<path fill="#2E2E2F" opacity="1.000000" stroke="none" 
	d="
M62.663506,5.777301 
	C63.166443,6.000160 63.333153,6.000178 63.749931,6.000233 
	C66.750000,5.999801 69.500000,5.999994 72.625000,6.000191 
	C73.166718,6.000247 73.333435,6.000223 73.750229,6.000170 
	C74.138710,5.880355 74.277122,5.760567 74.683258,5.579889 
	C75.133995,5.514159 75.316986,5.509319 75.774460,5.511744 
	C76.227455,5.559595 76.405960,5.600182 76.792076,5.820473 
	C77.166466,6.000180 77.333229,6.000183 77.750153,6.000185 
	C78.245636,5.932836 78.490967,5.865487 79.103500,5.902291 
	C84.748390,6.564987 90.016655,7.529321 95.667114,6.187543 
	C96.000107,6.000390 96.000000,6.000000 96.000153,6.000093 
	C96.139687,5.888755 96.279060,5.777326 96.676407,5.594438 
	C97.112701,5.516254 97.291031,5.509530 97.737076,5.501740 
	C98.183273,5.501309 98.361755,5.501943 98.807816,5.511784 
	C99.248718,5.563714 99.422028,5.606437 99.797668,5.824515 
	C100.000000,5.999871 100.500000,5.999872 100.750000,5.999869 
	C101.144684,5.874741 101.289368,5.749616 101.716995,5.576826 
	C102.188583,5.560945 102.377213,5.592728 102.782768,5.812335 
	C103.166412,6.000181 103.333130,6.000205 103.749924,6.000268 
	C107.143471,5.747815 110.345558,6.555542 113.721756,5.239356 
	C117.361618,5.000653 120.723137,5.000824 124.542786,5.001404 
	C125.839081,5.988432 126.140617,7.059353 125.257477,8.637810 
	C114.585289,9.635061 104.165726,10.196899 93.757904,10.926154 
	C83.111893,11.672099 72.570816,9.302118 61.467415,9.999126 
	C60.230766,9.181844 59.679062,8.283751 60.066013,6.716131 
	C60.399094,6.140677 60.580376,5.940977 61.143028,5.608434 
	C61.792027,5.501880 62.059650,5.528170 62.663506,5.777301 
z"/>
<path fill="#2D2D2D" opacity="1.000000" stroke="none" 
	d="
M61.706142,187.789047 
	C56.492302,188.982666 51.555569,187.819214 47.450432,183.917313 
	C42.732044,179.432510 38.895733,174.250946 35.978497,168.437500 
	C29.735905,155.997360 22.627390,144.074905 14.841455,132.546173 
	C14.481848,132.013687 14.367145,131.315811 14.069408,130.347473 
	C19.376797,132.543137 21.279610,138.063263 24.079311,142.557495 
	C30.647987,153.101883 36.606739,164.033432 42.615116,174.917160 
	C46.762592,182.430023 53.566212,185.706955 61.706142,187.789047 
z"/>
<path fill="#2D2D2D" opacity="1.000000" stroke="none" 
	d="
M189.664490,121.081085 
	C184.081482,134.899155 176.072479,147.676331 168.327118,160.885284 
	C169.068726,151.399261 175.960052,144.518875 179.749619,136.181671 
	C181.671387,131.953674 183.256378,127.386505 186.546158,123.808983 
	C187.426086,122.852097 187.919388,121.550026 189.664490,121.081085 
z"/>
<path fill="#2D2D2D" opacity="1.000000" stroke="none" 
	d="
M108.650002,188.780365 
	C100.302498,191.078354 91.477440,189.986511 82.739151,189.674805 
	C79.245728,189.550186 75.868332,189.474960 72.390793,189.847046 
	C70.061516,190.096298 67.368187,190.915970 65.166672,188.344376 
	C77.645050,186.468933 90.290154,188.454987 102.937080,188.019684 
	C104.731270,187.957932 106.576920,187.753540 108.650002,188.780365 
z"/>
<path fill="#292929" opacity="1.000000" stroke="none" 
	d="
M25.497911,68.908707 
	C22.884468,69.070419 21.714254,71.320793 19.337116,71.924896 
	C22.329033,65.128654 27.933893,59.946499 32.465439,53.967312 
	C32.620083,53.763268 33.342587,53.989605 34.018555,54.214073 
	C31.427027,59.191818 28.617355,63.970829 25.497911,68.908707 
z"/>
<path fill="#2D2D2D" opacity="1.000000" stroke="none" 
	d="
M164.664261,169.081802 
	C162.850464,173.980194 161.005219,179.181122 155.335510,181.924469 
	C157.931427,177.591721 160.459793,172.890518 164.664261,169.081802 
z"/>
<path fill="#2E2E2F" opacity="1.000000" stroke="none" 
	d="
M126.762238,5.346393 
	C129.700256,5.001111 132.401413,5.000792 135.552124,5.000900 
	C136.544357,5.729857 138.124924,5.243053 138.040329,6.613737 
	C137.993179,7.378010 137.188507,7.464380 136.273590,7.785908 
	C133.299530,8.000076 130.599075,8.000153 127.449203,8.000374 
	C126.335098,7.334870 126.231339,6.553977 126.762238,5.346393 
z"/>
<path fill="#2D2D2D" opacity="1.000000" stroke="none" 
	d="
M125.661873,189.784424 
	C121.780556,191.792847 117.660599,191.314911 113.300552,189.228546 
	C117.153419,188.202805 121.230820,189.053909 125.661873,189.784424 
z"/>
<path fill="#2D2D2D" opacity="1.000000" stroke="none" 
	d="
M150.616852,185.026123 
	C149.136673,188.196289 145.440292,187.460114 142.367767,188.925476 
	C143.787292,185.686554 147.317459,186.009827 150.616852,185.026123 
z"/>
<path fill="#292929" opacity="1.000000" stroke="none" 
	d="
M18.668804,73.075668 
	C18.211809,75.433449 17.194016,77.700493 14.329943,78.922501 
	C14.790556,76.567017 15.808387,74.300240 18.668804,73.075668 
z"/>
<path fill="#2D2D2D" opacity="1.000000" stroke="none" 
	d="
M181.023666,59.368843 
	C183.256851,60.511147 184.008575,62.943607 184.932007,65.656296 
	C182.105194,64.908096 181.598450,62.308887 181.023666,59.368843 
z"/>
<path fill="#2D2D2D" opacity="1.000000" stroke="none" 
	d="
M136.338226,8.063087 
	C136.730606,7.190901 137.550446,6.391581 136.145233,5.182756 
	C137.067551,5.001289 138.133469,5.001252 139.599075,5.001580 
	C139.999252,6.067995 139.999725,7.134044 140.000412,8.599887 
	C138.892563,8.708511 137.784500,8.417343 136.338226,8.063087 
z"/>
<path fill="#2F2F2F" opacity="1.000000" stroke="none" 
	d="
M60.699745,5.720168 
	C61.000114,7.066844 60.999924,8.133078 60.999638,9.599102 
	C60.555237,9.999084 60.110931,9.999274 59.333393,9.999465 
	C58.107010,9.071059 56.526852,8.738996 56.572189,6.690234 
	C57.728210,5.193488 58.975796,4.934169 60.699745,5.720168 
z"/>
<path fill="#2D2D2D" opacity="1.000000" stroke="none" 
	d="
M52.344933,12.933191 
	C52.000046,12.555534 52.000092,12.111107 52.000145,11.333359 
	C51.759426,9.446576 52.843586,9.038119 54.431442,8.693007 
	C55.450405,8.771834 55.984035,8.978509 56.733761,9.658855 
	C56.371315,12.171130 54.376953,12.287627 52.344933,12.933191 
z"/>
<path fill="#2D2D2D" opacity="1.000000" stroke="none" 
	d="
M167.654602,162.090240 
	C167.508850,163.737976 167.418365,165.675262 165.313629,166.883072 
	C165.055542,165.051483 164.903885,163.003372 167.654602,162.090240 
z"/>
<path fill="#2E2E2F" opacity="1.000000" stroke="none" 
	d="
M57.333992,10.000837 
	C56.556110,10.000784 56.111462,10.000463 55.333328,10.000013 
	C54.414505,9.331620 54.173092,8.568274 54.548927,7.314335 
	C55.205910,6.598359 55.728111,6.464302 56.652004,6.770358 
	C57.611694,7.804639 58.223549,8.608637 58.917782,9.706050 
	C58.555847,9.999834 58.111530,10.000202 57.333992,10.000837 
z"/>
<path fill="#2D2D2D" opacity="1.000000" stroke="none" 
	d="
M13.978115,129.641235 
	C12.348823,129.014252 11.597664,127.432564 11.064272,125.332108 
	C13.169650,125.610725 13.738950,127.325378 13.978115,129.641235 
z"/>
<path fill="#2E2E2F" opacity="1.000000" stroke="none" 
	d="
M9.933791,121.667313 
	C8.239179,121.579201 7.531399,120.253929 7.065874,118.331573 
	C8.759737,118.420364 9.468258,119.745049 9.933791,121.667313 
z"/>
<path fill="#292929" opacity="1.000000" stroke="none" 
	d="
M11.685524,83.099533 
	C11.694353,84.565338 11.264114,86.056870 9.313347,86.898582 
	C9.307025,85.433952 9.738097,83.943115 11.685524,83.099533 
z"/>
<path fill="#2D2D2D" opacity="1.000000" stroke="none" 
	d="
M137.644867,189.004791 
	C137.380249,190.819183 136.201538,191.234711 134.259827,190.192947 
	C134.946762,189.173111 136.092102,189.005341 137.644867,189.004791 
z"/>
<path fill="#2D2D2D" opacity="1.000000" stroke="none" 
	d="
M131.747437,189.806107 
	C130.923218,190.923828 129.768280,191.143280 128.252594,190.193863 
	C129.076767,189.075989 130.231705,188.856506 131.747437,189.806107 
z"/>
<path fill="#2D2D2D" opacity="1.000000" stroke="none" 
	d="
M190.065674,76.332581 
	C191.760132,76.420204 192.468185,77.745369 192.934814,79.667168 
	C191.240021,79.579918 190.531876,78.254776 190.065674,76.332581 
z"/>
<path fill="#2D2D2D" opacity="1.000000" stroke="none" 
	d="
M36.314518,34.897430 
	C36.307823,33.433434 36.737572,31.943108 38.685841,31.102612 
	C38.692188,32.566406 38.262623,34.056854 36.314518,34.897430 
z"/>
<path fill="#2D2D2D" opacity="1.000000" stroke="none" 
	d="
M31.314224,43.897331 
	C31.307959,42.433449 31.737564,40.942940 33.686157,40.102875 
	C33.692047,41.566551 33.262535,43.057114 31.314224,43.897331 
z"/>
<path fill="#2D2D2D" opacity="1.000000" stroke="none" 
	d="
M28.314217,48.897327 
	C28.307962,47.433453 28.737545,45.942924 30.686157,45.102871 
	C30.692060,46.566563 30.262535,48.057117 28.314217,48.897327 
z"/>
<path fill="#2D2D2D" opacity="1.000000" stroke="none" 
	d="
M25.314236,53.897331 
	C25.307966,52.433453 25.737560,50.942936 27.686161,50.102875 
	C27.692062,51.566559 27.262531,53.057106 25.314236,53.897331 
z"/>
<path fill="#2D2D2D" opacity="1.000000" stroke="none" 
	d="
M22.314178,58.897316 
	C22.307976,57.433456 22.737547,55.942917 24.686159,55.102871 
	C24.692047,56.566563 24.262514,58.057125 22.314178,58.897316 
z"/>
<path fill="#2D2D2D" opacity="1.000000" stroke="none" 
	d="
M126.666054,5.001266 
	C126.999313,5.751184 126.999542,6.500937 126.999786,7.625605 
	C126.519127,8.293426 126.038445,8.586330 125.278732,8.939484 
	C125.000000,7.933585 125.000305,6.867436 125.000763,5.401550 
	C125.444954,5.001575 125.888985,5.001338 126.666054,5.001266 
z"/>
<path fill="#2D2D2D" opacity="1.000000" stroke="none" 
	d="
M187.065659,71.332306 
	C188.759949,71.420219 189.468231,72.745255 189.934799,74.667160 
	C188.239914,74.579895 187.531799,73.254646 187.065659,71.332306 
z"/>
<path fill="#2C2C2C" opacity="1.000000" stroke="none" 
	d="
M176.821991,52.232536 
	C177.320755,52.783192 177.642105,53.566116 177.981430,54.674568 
	C176.709610,54.602905 175.900833,53.948673 176.821991,52.232536 
z"/>
<path fill="#292929" opacity="1.000000" stroke="none" 
	d="
M8.027099,109.330551 
	C8.931592,109.554390 9.629568,110.294212 9.937581,111.696655 
	C8.805554,111.676788 8.155675,110.897552 8.027099,109.330551 
z"/>
<path fill="#292929" opacity="1.000000" stroke="none" 
	d="
M13.711157,80.088692 
	C13.524794,80.602417 13.050426,81.209496 12.287651,81.909271 
	C12.473881,81.395325 12.948517,80.788681 13.711157,80.088692 
z"/>
<path fill="#2D2D2D" opacity="1.000000" stroke="none" 
	d="
M153.712006,183.092072 
	C153.525375,183.605164 153.050735,184.210327 152.288055,184.907440 
	C152.474670,184.394302 152.949326,183.789230 153.712006,183.092072 
z"/>
<path fill="#2D2D2D" opacity="1.000000" stroke="none" 
	d="
M34.288422,38.908073 
	C34.474903,38.394913 34.949371,37.789555 35.711853,37.092026 
	C35.525379,37.605190 35.050896,38.210537 34.288422,38.908073 
z"/>
<path fill="#292929" opacity="1.000000" stroke="none" 
	d="
M6.861741,102.197205 
	C7.292103,102.479279 7.585600,102.962250 7.938650,103.725662 
	C7.199441,103.766518 6.323669,103.587914 6.861741,102.197205 
z"/>
<path fill="#2D2D2D" opacity="1.000000" stroke="none" 
	d="
M20.288376,61.908058 
	C20.474882,61.394897 20.949383,60.789539 21.711905,60.092014 
	C21.525406,60.605190 21.050886,61.210529 20.288376,61.908058 
z"/>
<path fill="#2D2D2D" opacity="1.000000" stroke="none" 
	d="
M18.288471,64.908089 
	C18.474960,64.394936 18.949427,63.789574 19.711906,63.092049 
	C19.525431,63.605217 19.050940,64.210548 18.288471,64.908089 
z"/>
<path fill="#292929" opacity="1.000000" stroke="none" 
	d="
M8.755447,89.060318 
	C8.792660,89.522171 8.586551,90.049622 8.189584,90.790222 
	C7.344099,90.151749 7.490917,89.519279 8.755447,89.060318 
z"/>
<path fill="#303030" opacity="1.000000" stroke="none" 
	d="
M33.662460,26.077675 
	C24.516285,41.576626 16.928772,58.302574 5.320343,72.892670 
	C6.698719,66.388596 11.682587,61.626518 14.751837,55.763245 
	C19.357674,46.964588 24.604223,38.501873 29.551510,29.880913 
	C30.474251,28.272978 31.382202,26.704964 33.662460,26.077675 
z"/>
<path fill="#303030" opacity="1.000000" stroke="none" 
	d="
M173.923553,39.620575 
	C172.343536,39.586754 171.672882,38.301769 171.116852,36.852348 
	C166.533798,24.905495 160.700363,13.907516 148.843536,7.452732 
	C148.169739,7.085922 147.749237,6.253848 147.105423,5.319242 
	C152.800201,5.760942 157.429428,8.958103 160.630844,13.403344 
	C166.310730,21.290016 172.313110,29.169222 173.923553,39.620575 
z"/>
<path fill="#2F2F2F" opacity="1.000000" stroke="none" 
	d="
M95.719696,5.908139 
	C90.587036,9.566079 84.978775,8.462734 79.246941,6.108716 
	C79.305344,5.454739 79.459610,5.388827 79.806969,5.161561 
	C80.000061,5.000207 80.500000,5.000233 80.749969,5.000215 
	C81.166634,5.137020 81.333321,5.273843 81.750031,5.205432 
	C82.000061,5.000198 82.500000,5.000228 82.749969,5.000212 
	C83.166634,5.137020 83.333321,5.273843 83.750031,5.205432 
	C84.000061,5.000198 84.500000,5.000228 84.749969,5.000212 
	C85.166634,5.137020 85.333321,5.273843 85.750031,5.205432 
	C89.146469,5.272094 92.292885,5.543991 95.719696,5.908139 
z"/>
<path fill="#2F2F2F" opacity="1.000000" stroke="none" 
	d="
M44.685040,12.847303 
	C43.914711,17.532969 41.194965,20.959759 37.333595,23.919968 
	C37.000458,24.000391 37.000000,24.000000 37.000000,24.000000 
	C36.606274,23.620155 36.459404,23.161303 36.779861,22.311882 
	C37.000305,22.000332 37.000000,22.000000 37.000153,22.000053 
	C37.692566,21.245213 37.874748,20.179485 38.784592,19.213013 
	C39.000153,19.000198 39.000385,18.500292 39.000458,18.250340 
	C39.541897,17.475170 40.065830,16.932417 40.802612,16.202637 
	C41.293388,15.519686 41.586510,15.039051 41.940079,14.279413 
	C42.669323,13.345529 43.318508,12.655060 44.685040,12.847303 
z"/>
<path fill="#2F2F2F" opacity="1.000000" stroke="none" 
	d="
M113.555801,5.000337 
	C111.355209,8.509388 107.905472,6.766813 104.335609,6.215279 
	C106.877930,4.216170 110.071396,5.306674 113.555801,5.000337 
z"/>
<path fill="#2F2F2F" opacity="1.000000" stroke="none" 
	d="
M54.750530,6.808528 
	C55.000305,7.750674 55.000149,8.500413 54.999920,9.625019 
	C54.169910,10.200361 53.339973,10.400837 52.255096,10.800675 
	C50.933529,11.000081 49.866909,11.000125 48.400311,11.000185 
	C47.642090,10.303429 47.955997,9.809409 48.744400,9.190800 
	C49.000153,9.000228 49.000000,9.000000 49.000107,9.000076 
	C49.532917,8.466241 50.067463,7.934183 50.802765,7.202947 
	C51.750401,7.000566 52.500298,7.000402 53.625149,7.000166 
	C54.166935,6.872104 54.333767,6.744112 54.750530,6.808528 
z"/>
<path fill="#2F2F2F" opacity="1.000000" stroke="none" 
	d="
M72.673401,5.787827 
	C70.288368,7.529652 67.483490,7.226199 64.326637,6.212616 
	C66.711594,4.470231 69.516533,4.773952 72.673401,5.787827 
z"/>
<path fill="#303030" opacity="1.000000" stroke="none" 
	d="
M55.333687,7.000777 
	C54.833733,7.000766 54.667007,7.000597 54.250191,7.000260 
	C55.815453,4.169739 58.491741,3.995839 61.709408,4.798096 
	C62.147896,5.167005 62.295792,5.333572 62.222073,5.750194 
	C61.833767,6.000303 61.667072,6.000359 61.250343,6.000513 
	C59.855881,6.197187 58.711456,6.393764 57.283432,6.795492 
	C56.555531,7.000635 56.111221,7.000627 55.333687,7.000777 
z"/>
<path fill="#303030" opacity="1.000000" stroke="none" 
	d="
M45.000092,13.000233 
	C44.208687,13.296802 43.417198,13.593138 42.313114,13.944942 
	C42.317318,12.143730 43.416840,11.160246 45.757805,11.322134 
	C46.091187,12.013108 45.852165,12.349938 45.251541,12.804272 
	C45.000462,13.000207 45.000000,13.000000 45.000092,13.000233 
z"/>
<path fill="#303030" opacity="1.000000" stroke="none" 
	d="
M48.668327,9.027761 
	C48.748585,9.499413 48.497017,9.998599 48.122894,10.748993 
	C48.000336,11.000201 48.000000,11.000000 48.000072,11.000219 
	C47.611679,11.376879 47.149509,11.528214 46.306908,11.227369 
	C46.000187,11.000299 46.000000,11.000000 46.000000,10.999981 
	C46.323662,9.804857 47.102249,9.156341 48.668327,9.027761 
z"/>
<path fill="#303030" opacity="1.000000" stroke="none" 
	d="
M38.693245,19.114220 
	C38.843250,20.071491 38.432533,21.001123 37.260475,21.825573 
	C37.067444,20.878700 37.204929,19.792473 38.693245,19.114220 
z"/>
<path fill="#303030" opacity="1.000000" stroke="none" 
	d="
M36.693371,22.114309 
	C37.000240,22.444700 37.000175,22.889071 37.000053,23.666718 
	C36.500828,24.251602 36.001656,24.503208 35.251320,24.877455 
	C35.067440,23.878700 35.204937,22.792421 36.693371,22.114309 
z"/>
<path fill="#303030" opacity="1.000000" stroke="none" 
	d="
M50.712395,7.092659 
	C50.525730,7.605792 50.050964,8.210856 49.288208,8.908037 
	C49.474907,8.394965 49.949600,7.789778 50.712395,7.092659 
z"/>
<path fill="#303030" opacity="1.000000" stroke="none" 
	d="
M40.712196,16.092373 
	C40.525661,16.605537 40.051056,17.210756 39.288490,17.908180 
	C39.475060,17.395065 39.949596,16.789747 40.712196,16.092373 
z"/>
<path fill="#2F2F2F" opacity="1.000000" stroke="none" 
	d="
M62.250275,6.000224 
	C62.000458,6.000248 62.000210,5.500337 62.000107,5.250387 
	C62.262096,5.179786 62.498333,5.388419 62.854218,5.813239 
	C62.999733,6.000142 62.500095,6.000199 62.250275,6.000224 
z"/>
<path fill="#2F2F2F" opacity="1.000000" stroke="none" 
	d="
M75.319992,5.750281 
	C74.999496,6.000205 74.499893,6.000206 74.250099,6.000174 
	C74.179596,5.738014 74.388184,5.501755 74.812912,5.145778 
	C75.213326,5.166912 75.426903,5.333635 75.319992,5.750281 
z"/>
<path fill="#303030" opacity="1.000000" stroke="none" 
	d="
M75.249771,6.000231 
	C74.999565,5.833534 74.999641,5.666863 74.999725,5.250191 
	C75.166504,5.000181 75.333267,5.000172 75.750168,5.000203 
	C76.136864,5.166869 76.273415,5.333495 76.205292,5.750184 
	C75.833763,6.000251 75.666908,6.000254 75.249771,6.000231 
z"/>
<path fill="#2F2F2F" opacity="1.000000" stroke="none" 
	d="
M76.250381,6.000232 
	C76.000534,5.833580 76.000458,5.666911 76.000343,5.250242 
	C76.262291,5.179715 76.498444,5.388416 76.854233,5.813261 
	C76.999695,6.000177 76.500153,6.000216 76.250381,6.000232 
z"/>
<path fill="#2F2F2F" opacity="1.000000" stroke="none" 
	d="
M78.999695,6.000267 
	C78.999390,6.000534 78.499847,6.000325 78.250076,6.000255 
	C78.179581,5.738055 78.388161,5.501796 78.812866,5.145818 
	C79.140526,5.166825 79.281364,5.333421 79.211105,5.750041 
	C79.000000,6.000064 79.000000,6.000000 78.999695,6.000267 
z"/>
<path fill="#303030" opacity="1.000000" stroke="none" 
	d="
M79.186913,5.854484 
	C79.000000,6.000064 78.999847,5.500144 78.999771,5.250186 
	C79.166420,5.000201 79.333153,5.000174 79.749969,5.000176 
	C79.820549,5.262275 79.611809,5.498507 79.186913,5.854484 
z"/>
<path fill="#303030" opacity="1.000000" stroke="none" 
	d="
M81.750031,5.000166 
	C82.000061,5.000198 81.638763,5.227828 81.638763,5.227828 
	C81.638763,5.227828 81.224869,5.184824 81.112411,5.092510 
	C81.166626,5.000175 81.333313,5.000155 81.750031,5.000166 
z"/>
<path fill="#303030" opacity="1.000000" stroke="none" 
	d="
M83.750031,5.000166 
	C84.000061,5.000198 83.638763,5.227828 83.638763,5.227828 
	C83.638763,5.227828 83.224869,5.184824 83.112411,5.092510 
	C83.166626,5.000175 83.333313,5.000155 83.750031,5.000166 
z"/>
<path fill="#303030" opacity="1.000000" stroke="none" 
	d="
M85.750031,5.000166 
	C86.000061,5.000198 85.638763,5.227828 85.638763,5.227828 
	C85.638763,5.227828 85.224869,5.184824 85.112411,5.092510 
	C85.166626,5.000175 85.333313,5.000155 85.750031,5.000166 
z"/>
<path fill="#2F2F2F" opacity="1.000000" stroke="none" 
	d="
M97.319984,5.750290 
	C96.999481,6.000211 96.499893,6.000227 96.250099,6.000206 
	C96.179596,5.738047 96.388184,5.501780 96.812912,5.145789 
	C97.213326,5.166919 97.426903,5.333644 97.319984,5.750290 
z"/>
<path fill="#303030" opacity="1.000000" stroke="none" 
	d="
M97.249741,6.000227 
	C96.999550,5.833540 96.999626,5.666870 96.999718,5.250197 
	C97.166496,5.000177 97.333244,5.000159 97.750122,5.000165 
	C98.211060,5.166805 98.421875,5.333421 98.316597,5.750121 
	C97.833672,6.000217 97.666832,6.000231 97.249741,6.000227 
z"/>
<path fill="#2F2F2F" opacity="1.000000" stroke="none" 
	d="
M98.250229,6.000225 
	C98.000427,5.833534 98.000359,5.666863 98.000275,5.250191 
	C98.000252,5.000189 98.499969,5.000177 98.749832,5.000167 
	C99.136475,5.166881 99.273254,5.333604 99.204712,5.750288 
	C98.999390,6.000248 98.499947,6.000246 98.250229,6.000225 
z"/>
<path fill="#303030" opacity="1.000000" stroke="none" 
	d="
M99.249542,6.000182 
	C98.999466,5.833566 98.999542,5.666883 98.999657,5.250179 
	C99.261909,5.179502 99.498260,5.388144 99.854370,5.812977 
	C99.833229,5.999952 99.666466,6.000034 99.249542,6.000182 
z"/>
<path fill="#303030" opacity="1.000000" stroke="none" 
	d="
M102.211411,5.750182 
	C101.833839,6.000213 101.667076,6.000177 101.250153,6.000004 
	C101.179527,5.737803 101.388313,5.501604 101.813339,5.145755 
	C102.140938,5.166868 102.281578,5.333492 102.211411,5.750182 
z"/>
<path fill="#2F2F2F" opacity="1.000000" stroke="none" 
	d="
M102.250381,6.000228 
	C102.000534,5.833580 102.000458,5.666911 102.000343,5.250242 
	C102.262291,5.179711 102.498444,5.388408 102.854233,5.813246 
	C102.999695,6.000158 102.500153,6.000209 102.250381,6.000228 
z"/>
<path fill="#2F2F2F" opacity="1.000000" stroke="none" 
	d="
M45.877533,11.251442 
	C46.444622,11.000290 46.889053,11.000280 47.666817,11.000354 
	C47.676426,12.195271 46.897911,12.843698 45.332211,12.972578 
	C45.251934,12.501000 45.503407,12.001793 45.877533,11.251442 
z"/>
<path fill="#2A2B2B" opacity="1.000000" stroke="none" 
	d="
M71.244385,126.297897 
	C70.873840,113.971313 70.804741,101.943703 70.845764,89.458717 
	C72.125809,87.955635 72.211960,86.763794 71.195038,85.227142 
	C70.880341,82.292274 70.804581,79.585701 70.839096,76.440018 
	C74.227325,69.286530 80.888268,67.462891 87.028015,64.894524 
	C88.729538,64.182747 90.299927,64.782112 91.677139,65.714127 
	C93.227081,66.763039 95.062943,66.937119 97.095901,67.762329 
	C109.222267,74.949112 120.959503,82.036827 132.910461,89.376831 
	C134.276047,93.069618 137.696411,95.233002 138.042099,99.248100 
	C138.535400,104.977913 138.072311,110.230225 133.312378,114.753319 
	C130.233154,118.685829 125.781464,119.726326 121.872528,122.166199 
	C118.436852,122.064728 115.923477,123.063576 114.261177,126.225769 
	C108.595985,129.765137 103.027748,132.986511 97.137901,136.247803 
	C84.786232,138.802277 78.319344,136.322327 71.244385,126.297897 
z"/>
<path fill="#292929" opacity="1.000000" stroke="none" 
	d="
M155.143204,111.770569 
	C153.016663,122.185318 150.761948,132.283844 148.270844,142.690643 
	C146.033981,145.138382 145.392700,147.920959 144.413666,150.555359 
	C140.514999,161.045990 128.030777,166.964142 117.140022,163.719498 
	C113.750702,162.709732 110.485260,160.383911 106.265961,162.151886 
	C95.677368,159.806091 85.458473,157.324783 74.000092,154.542496 
	C84.420403,148.665344 93.865929,143.337952 103.655449,137.909012 
	C105.577469,139.212692 105.940109,141.014420 105.038017,142.791122 
	C102.461624,147.865387 104.440704,151.350021 108.699181,154.151321 
	C116.247604,159.116821 124.272186,159.359268 132.237259,155.713669 
	C138.349213,152.916229 140.745346,147.119141 141.568939,140.843811 
	C142.463150,134.030624 140.287842,130.647736 134.046280,127.816994 
	C132.162842,126.962799 130.515823,125.871216 130.752106,123.116974 
	C137.502213,117.652115 145.178452,114.318657 152.590149,109.891449 
	C153.851974,110.078285 154.562302,110.603119 155.143204,111.770569 
z"/>
<path fill="#292B2B" opacity="1.000000" stroke="none" 
	d="
M150.780945,35.668179 
	C160.599182,52.718185 170.186890,69.442749 179.758423,86.176575 
	C181.478928,89.184509 183.132797,92.230576 185.070450,95.713913 
	C177.543625,97.358818 170.454605,98.913139 163.362976,100.455406 
	C160.404694,101.098763 161.150162,98.629913 160.909119,97.292976 
	C157.279037,77.159515 153.722244,57.012833 150.163635,36.462730 
	C150.300980,35.819431 150.422928,35.582664 150.780945,35.668179 
z"/>
<path fill="#292929" opacity="1.000000" stroke="none" 
	d="
M39.613064,78.483696 
	C47.508305,69.171074 56.740234,61.579346 66.213989,51.931152 
	C66.213989,77.243301 66.213989,101.166000 66.096237,125.544525 
	C58.494514,132.416977 56.258743,132.638992 46.516361,125.479683 
	C39.453323,120.289322 34.508240,113.062386 31.106218,105.015938 
	C28.129839,97.976227 31.171497,91.648743 34.872448,85.828094 
	C36.366730,83.477974 38.393734,81.425186 39.613064,78.483696 
z"/>
<path fill="#292B2B" opacity="1.000000" stroke="none" 
	d="
M21.779518,86.223618 
	C33.006268,65.849182 44.192169,45.932888 55.873623,25.134279 
	C59.271294,32.408192 62.121326,38.709793 65.160408,44.918861 
	C66.400726,47.452900 64.283607,48.156387 63.112083,49.284016 
	C50.055790,61.851078 36.951237,74.367996 23.580788,87.074615 
	C22.639004,87.450668 22.117929,87.261009 21.779518,86.223618 
z"/>
<path fill="#292B2B" opacity="1.000000" stroke="none" 
	d="
M148.458328,162.186386 
	C152.221115,144.616806 156.374222,127.308296 160.217575,109.931267 
	C161.042542,106.201416 162.293488,104.230461 166.415802,103.699097 
	C172.473236,102.918327 178.421875,101.293373 185.455276,99.808884 
	C173.517487,120.895020 162.018585,141.205948 150.297134,161.774292 
	C149.687851,162.363129 149.242279,162.493530 148.458328,162.186386 
z"/>
<path fill="#292929" opacity="1.000000" stroke="none" 
	d="
M132.598328,83.381699 
	C113.025963,71.862076 93.861717,60.228809 73.389740,47.801712 
	C84.213181,44.307552 93.735138,41.233555 103.630074,38.158051 
	C104.850136,38.817509 105.860435,39.005928 106.771790,38.560059 
	C112.301804,35.854580 118.330078,35.461018 124.668365,34.570274 
	C125.605766,34.358475 126.151634,34.357430 127.096207,34.593964 
	C136.033890,37.841187 142.656799,43.212978 145.302567,52.071339 
	C147.666534,59.986191 151.426392,68.077950 147.145416,76.508018 
	C143.727646,83.238258 140.771988,84.509155 132.598328,83.381699 
z"/>
<path fill="#262727" opacity="1.000000" stroke="none" 
	d="
M67.699799,22.644779 
	C89.005760,22.327480 110.005249,22.261595 131.467346,22.236546 
	C132.287109,22.403988 132.644272,22.530602 133.131042,23.210642 
	C116.140625,29.246637 99.020622,34.729198 81.511574,40.243996 
	C73.999237,38.728607 70.243607,33.474125 67.142151,27.526711 
	C66.332024,25.973179 66.284836,24.383865 67.699799,22.644779 
z"/>
<path fill="#272828" opacity="1.000000" stroke="none" 
	d="
M39.224953,78.236252 
	C40.138073,80.453995 40.194668,83.013496 38.410961,84.668373 
	C34.721294,88.091553 34.107670,92.812958 32.624969,97.123268 
	C31.150454,101.409782 33.285610,105.207893 35.393421,108.795586 
	C39.871861,116.418335 45.986763,122.492165 53.170425,127.604507 
	C55.289238,129.112396 57.150024,129.073364 59.121788,127.836060 
	C60.999855,126.657555 62.910980,125.798317 65.578262,126.002441 
	C65.978477,133.424088 65.978477,140.847824 65.978477,147.700134 
	C60.360569,142.463745 54.343582,137.200302 48.724854,131.541412 
	C39.113052,121.860909 29.849171,111.834564 20.218443,102.173508 
	C17.611378,99.558243 18.031908,98.195435 20.521473,95.934372 
	C26.790470,90.240753 32.795605,84.256622 39.224953,78.236252 
z"/>
<path fill="#2A2D2D" opacity="1.000000" stroke="none" 
	d="
M64.576485,165.547882 
	C69.536713,157.200729 69.494286,157.364243 78.414192,159.678528 
	C94.506905,163.853775 110.656342,167.810349 126.780563,171.864288 
	C128.042587,172.181595 129.292770,172.546051 130.488571,173.484802 
	C107.233879,173.484802 83.979187,173.484802 60.446842,173.484802 
	C60.820557,170.550781 63.034424,168.404663 64.576485,165.547882 
z"/>
<path fill="#282B2B" opacity="1.000000" stroke="none" 
	d="
M59.609192,165.612244 
	C58.429382,167.398758 57.462795,168.878036 56.074497,171.002686 
	C44.954105,151.436554 34.139858,132.409073 23.325609,113.381592 
	C23.538759,113.182793 23.751909,112.983994 23.965057,112.785194 
	C26.310202,114.961876 28.758635,117.038414 30.982866,119.332336 
	C41.385406,130.060760 51.596588,140.979004 62.173897,151.530930 
	C65.062164,154.412247 65.893745,156.500839 63.102436,159.739151 
	C61.718887,161.344269 60.897911,163.434326 59.609192,165.612244 
z"/>
<path fill="#2A2B2B" opacity="1.000000" stroke="none" 
	d="
M130.551697,122.842300 
	C132.290741,125.273949 134.787918,125.720047 137.236038,126.295570 
	C139.773865,126.892189 142.079819,127.897339 142.641510,130.799774 
	C144.003220,137.836121 143.566910,144.441925 139.705322,150.931305 
	C135.119110,158.638428 124.535461,161.165329 114.390991,158.566620 
	C112.780540,158.154083 111.175797,157.649719 109.645744,157.004440 
	C101.258545,153.467285 99.924828,150.180618 103.204910,141.482590 
	C103.553581,140.557968 103.708794,139.560410 103.976593,138.202057 
	C112.509491,132.448029 121.234802,127.466713 130.551697,122.842300 
z"/>
<path fill="#272828" opacity="1.000000" stroke="none" 
	d="
M132.448639,83.737198 
	C133.561691,82.914070 134.898193,82.224152 136.310394,81.769379 
	C144.740295,79.054672 148.506607,72.897583 146.719894,64.165810 
	C145.891083,60.115303 144.628784,56.149292 143.476257,52.170105 
	C141.097916,43.958668 135.123032,39.369564 127.250031,36.238323 
	C129.178757,31.533234 132.670486,33.701115 135.183243,34.975464 
	C139.443039,37.135818 143.098541,40.222763 144.889206,45.059151 
	C145.561630,46.875271 146.447464,48.688068 147.725433,50.689987 
	C149.866989,56.866795 150.229507,63.025311 151.385178,69.033310 
	C152.876175,76.784355 154.286957,84.551308 155.660004,92.324181 
	C155.969955,94.078819 156.607803,95.853363 155.802490,98.349648 
	C147.989746,93.488358 140.348404,88.733711 132.448639,83.737198 
z"/>
<path fill="#262727" opacity="1.000000" stroke="none" 
	d="
M106.160522,162.567429 
	C107.860184,158.509354 110.992126,160.000427 113.696877,160.800644 
	C127.651398,164.929184 137.521347,160.688034 144.250412,147.530884 
	C145.062714,145.942581 145.535202,144.066437 147.709351,143.106339 
	C146.089157,150.549850 143.726959,158.012527 143.011765,165.829590 
	C142.605942,170.265289 140.854080,171.437790 136.249069,170.122528 
	C126.417061,167.314392 116.378632,165.228973 106.160522,162.567429 
z"/>
<path fill="#262727" opacity="1.000000" stroke="none" 
	d="
M148.007538,50.595352 
	C145.216919,50.147953 144.809921,47.307281 143.299683,45.412510 
	C139.199280,40.268089 135.067688,35.278839 127.283012,35.834740 
	C126.555885,35.998943 126.111267,35.999023 125.333206,35.999084 
	C123.098320,35.991745 121.142570,36.082600 120.602341,33.178131 
	C127.208870,30.490660 133.870483,28.295839 140.445496,25.866608 
	C142.912033,24.955313 143.724976,25.296640 144.277802,28.053108 
	C145.751343,35.400547 145.870972,42.972420 148.007538,50.595352 
z"/>
<path fill="#272828" opacity="1.000000" stroke="none" 
	d="
M133.403687,115.059563 
	C133.313309,113.830032 133.344650,112.436775 133.912811,111.315536 
	C136.893341,105.433578 136.306503,99.624062 133.924744,93.758186 
	C133.502197,92.717522 133.379868,91.554962 133.121536,90.038895 
	C138.512650,92.831284 143.914078,96.012009 149.282440,99.247559 
	C151.093399,100.339035 152.820572,101.569557 155.284836,103.198433 
	C147.894989,107.561638 141.043930,111.650887 133.403687,115.059563 
z"/>
<path fill="#272828" opacity="1.000000" stroke="none" 
	d="
M67.570465,22.309420 
	C68.708145,28.590759 72.791260,32.587154 77.131302,36.418125 
	C78.349464,37.493397 79.556839,38.580891 80.945847,39.969513 
	C81.020172,40.406544 80.945511,40.595707 80.811493,40.658779 
	C70.193031,45.656525 70.175392,45.664001 65.171989,35.140694 
	C63.269718,31.139759 61.467209,27.091387 59.234112,22.225473 
	C62.366623,22.225473 64.750641,22.225473 67.570465,22.309420 
z"/>
<path fill="#262727" opacity="1.000000" stroke="none" 
	d="
M86.338654,141.971634 
	C81.261238,145.256424 76.390800,148.158417 70.725952,151.533737 
	C70.725952,144.710358 70.725952,138.811966 70.835373,132.456299 
	C72.487656,130.582748 74.079155,130.450455 75.882736,131.601852 
	C78.777214,133.449707 81.445251,135.609909 84.847435,136.704224 
	C86.931107,137.374435 87.694412,139.357758 86.338654,141.971634 
z"/>
<path fill="#262727" opacity="1.000000" stroke="none" 
	d="
M71.289101,70.256622 
	C70.948891,64.064087 70.948891,58.127018 70.948891,51.892143 
	C76.686012,53.382614 80.440582,58.147659 85.885147,60.476479 
	C87.369766,63.673347 86.401237,65.538986 83.438095,66.515152 
	C80.899208,67.351562 78.555069,68.633499 76.248550,69.943405 
	C74.724190,70.809113 73.324203,71.544632 71.289101,70.256622 
z"/>
<path fill="#2B2D2D" opacity="1.000000" stroke="none" 
	d="
M144.541260,178.074341 
	C144.368561,181.067780 141.817673,181.414032 139.622086,181.808121 
	C128.257004,183.848038 117.127258,182.838684 106.142944,178.492371 
	C118.690323,178.117615 131.384491,178.055008 144.541260,178.074341 
z"/>
<path fill="#2B2D2D" opacity="1.000000" stroke="none" 
	d="
M147.590149,20.523293 
	C149.379440,20.169704 151.335312,20.642920 152.406616,22.150198 
	C157.607254,29.467319 161.790497,37.343243 164.555695,45.914631 
	C164.714447,46.406723 164.187836,47.119915 163.710358,47.978432 
	C158.200775,39.104702 152.961044,29.982750 147.590149,20.523293 
z"/>
<path fill="#292929" opacity="1.000000" stroke="none" 
	d="
M70.837738,70.419273 
	C76.227676,67.659973 82.623505,67.278603 86.009178,61.111511 
	C89.740585,62.935638 93.386459,65.114197 97.258675,67.577072 
	C93.686211,69.219612 90.444756,65.443375 86.056618,67.351440 
	C81.615562,69.282516 77.125435,70.441635 74.275810,74.763397 
	C73.831261,75.437607 72.563957,75.569321 71.313232,75.976402 
	C70.875099,74.279732 70.800850,72.558563 70.837738,70.419273 
z"/>
<path fill="#292929" opacity="1.000000" stroke="none" 
	d="
M86.487640,142.272629 
	C86.103287,138.962509 83.963577,137.526901 81.086182,136.409470 
	C77.877357,135.163330 75.351967,132.392273 71.321472,132.022583 
	C70.871201,130.278107 70.797600,128.557220 70.833473,126.417625 
	C72.108025,126.060577 73.443375,126.040337 74.135178,127.054878 
	C79.405029,134.783203 87.089630,136.658524 96.304291,136.225037 
	C93.492065,138.255417 90.167831,140.223114 86.487640,142.272629 
z"/>
<path fill="#2B2D2D" opacity="1.000000" stroke="none" 
	d="
M158.577972,156.153076 
	C160.344177,156.425232 161.235611,157.499527 160.676941,158.958206 
	C158.430984,164.822220 156.154205,170.724564 151.232681,174.987549 
	C150.450058,175.665421 149.088943,175.675430 147.634003,176.002106 
	C150.948761,169.457336 154.624786,162.904678 158.577972,156.153076 
z"/>
<path fill="#272828" opacity="1.000000" stroke="none" 
	d="
M120.217316,32.796570 
	C121.880981,33.707855 123.180275,34.637043 124.739670,35.782650 
	C118.856552,37.569126 112.285721,37.042786 106.374275,39.831696 
	C105.663406,40.167072 104.813568,39.507271 104.156837,38.465927 
	C109.286354,36.375854 114.569656,34.595161 120.217316,32.796570 
z"/>
<path fill="#2B2D2D" opacity="1.000000" stroke="none" 
	d="
M123.456345,17.910320 
	C123.118828,17.339613 123.084877,16.690441 123.390800,16.402962 
	C125.958031,13.990552 139.083542,14.499688 141.938965,17.445026 
	C135.975677,17.881689 129.946564,17.940598 123.456345,17.910320 
z"/>
<path fill="#292929" opacity="1.000000" stroke="none" 
	d="
M114.507431,126.438049 
	C114.172791,121.824348 116.621208,120.614433 121.179535,122.067871 
	C119.311371,123.588982 117.081001,124.960655 114.507431,126.438049 
z"/>
<path fill="#475757" opacity="1.000000" stroke="none" 
	d="
M148.041458,162.257736 
	C148.599655,161.982651 149.020508,162.015488 149.757996,162.040009 
	C149.702148,163.782669 148.919357,165.271408 147.384567,166.341614 
	C146.721436,164.914505 147.773361,163.806885 148.041458,162.257736 
z"/>
<path fill="#282B2B" opacity="1.000000" stroke="none" 
	d="
M155.463409,111.815643 
	C154.355606,111.825027 153.566605,111.399246 153.053802,110.138832 
	C153.641357,108.909027 154.810440,107.993721 155.646744,108.503784 
	C156.621445,109.098251 155.905472,110.498718 155.463409,111.815643 
z"/>
<path fill="#292929" opacity="1.000000" stroke="none" 
	d="
M70.849380,85.390732 
	C73.065689,85.947815 73.606125,87.150230 71.260513,88.885468 
	C70.884811,87.928436 70.813744,86.855522 70.849380,85.390732 
z"/>
<path fill="#475757" opacity="1.000000" stroke="none" 
	d="
M133.550247,23.799721 
	C133.027832,23.526146 132.795044,23.288219 132.246094,22.663837 
	C133.271973,22.127489 134.660278,21.539267 135.864761,22.692654 
	C135.189789,23.073557 134.514832,23.454462 133.550247,23.799721 
z"/>
<path fill="#475757" opacity="1.000000" stroke="none" 
	d="
M21.473566,86.104538 
	C22.122105,86.124619 22.423841,86.483765 23.013725,87.046852 
	C22.711922,88.109543 22.078487,89.367432 20.927153,88.794968 
	C19.787729,88.228432 20.875729,87.235703 21.473566,86.104538 
z"/>
<path fill="#475757" opacity="1.000000" stroke="none" 
	d="
M151.037750,35.726711 
	C151.017014,35.990456 150.603851,36.097584 150.391449,36.076893 
	C150.192993,35.661972 150.206955,35.267746 150.220901,34.873512 
	C150.500092,35.070000 150.779297,35.266483 151.037750,35.726711 
z"/>
<path fill="#475757" opacity="1.000000" stroke="none" 
	d="
M19.407537,89.867523 
	C19.856806,89.108139 19.953516,87.952698 20.956984,88.647194 
	C21.121229,88.760864 20.944912,89.366615 20.529844,89.944977 
	C19.899694,90.169907 19.665697,90.194794 19.407537,89.867523 
z"/>
<path fill="#475757" opacity="1.000000" stroke="none" 
	d="
M19.950638,89.982224 
	C19.634447,90.877480 19.310381,90.909645 19.312420,89.718605 
	C19.383375,89.515381 19.767582,89.819420 19.950638,89.982224 
z"/>
<path fill="#2D2D2D" opacity="1.000000" stroke="none" 
	d="
M130.071899,97.321373 
	C132.361557,106.795029 129.313538,111.927383 117.936646,116.704071 
	C111.252808,119.510345 105.589226,123.737778 99.653717,127.676170 
	C94.608521,131.023819 88.278313,132.330536 83.044685,130.292267 
	C77.377869,128.085312 75.831024,121.377769 75.155190,115.681648 
	C73.779129,104.083885 75.756111,92.546448 77.335793,81.081924 
	C78.415123,73.248680 84.199661,69.948174 91.932312,71.979897 
	C95.031433,72.794182 97.994705,74.034966 100.402451,76.078384 
	C108.510498,82.959557 117.990372,87.838318 126.462654,94.178711 
	C127.649582,95.066971 129.112228,95.587990 130.071899,97.321373 
z"/>
<path fill="#2C2C2C" opacity="1.000000" stroke="none" 
	d="
M62.423519,108.027809 
	C62.608253,112.973312 60.669823,116.761520 58.289379,120.441681 
	C57.177063,122.161301 55.946274,123.096169 53.798672,122.697739 
	C44.412376,120.956352 33.438370,103.125954 36.219646,94.067833 
	C38.901913,85.332169 46.831245,78.622780 53.800735,78.987831 
	C56.850456,79.147568 58.284710,80.639511 59.729889,83.300827 
	C63.568108,90.368958 61.908993,97.809639 62.048592,105.147636 
	C62.064274,105.972153 62.250111,106.793419 62.423519,108.027809 
z"/>
<path fill="#2C2D2D" opacity="1.000000" stroke="none" 
	d="
M141.038651,51.189774 
	C143.332535,56.123669 143.620499,61.190105 144.769684,66.020485 
	C145.969299,71.062836 143.086914,75.703308 139.373566,78.110512 
	C135.349060,80.719437 129.969788,79.308800 126.238251,76.297165 
	C120.207718,71.430084 113.548302,67.807213 106.729698,64.303894 
	C100.687782,61.199631 98.377144,55.435368 100.191002,48.785580 
	C100.400337,48.018166 100.759315,47.133762 101.338150,46.648884 
	C108.688156,40.492008 121.980919,36.280514 131.667389,40.725948 
	C136.363617,42.881199 138.383881,46.952015 141.038651,51.189774 
z"/>
<path fill="#2C2D2D" opacity="1.000000" stroke="none" 
	d="
M139.978378,142.702240 
	C136.806946,155.390778 131.126999,157.196945 120.491730,156.534546 
	C116.608932,156.292709 112.508194,155.878433 109.749046,152.268539 
	C108.560577,150.713623 107.601372,149.226547 108.595047,147.314957 
	C111.480537,141.763992 114.994629,136.838913 121.410088,134.899811 
	C122.510002,134.567337 123.599380,134.121002 124.604340,133.565689 
	C134.351624,128.179642 139.895401,131.309418 139.978378,142.702240 
z"/>
<path fill="#303030" opacity="1.000000" stroke="none" 
	d="
M86.286819,121.956970 
	C83.586296,119.741783 82.930000,117.147469 82.969788,114.141434 
	C83.066811,106.811676 82.996269,99.479752 83.000870,92.148705 
	C83.007362,81.795433 89.382187,77.693169 98.521080,83.026253 
	C105.516281,87.108376 112.253197,91.750671 118.966515,96.332405 
	C123.375725,99.341606 123.303337,103.949516 119.664993,107.834770 
	C116.913811,110.772667 113.941963,113.192711 110.022118,114.686195 
	C106.174713,116.152092 102.722496,118.636353 99.050171,120.585754 
	C95.126640,122.668518 91.051613,123.884621 86.286819,121.956970 
z"/>
<path fill="#2E2E2F" opacity="1.000000" stroke="none" 
	d="
M44.382988,108.796745 
	C35.709679,102.108856 39.259884,89.709641 47.831360,86.258270 
	C51.145054,84.923981 53.142529,85.502571 54.015976,89.291550 
	C55.073410,93.878601 55.058216,98.493546 54.992897,103.130898 
	C54.881374,111.048309 51.688637,112.867081 44.382988,108.796745 
z"/>
<path fill="#2F2F2F" opacity="1.000000" stroke="none" 
	d="
M136.655945,55.665115 
	C136.775864,57.893177 137.035889,59.751637 136.774887,61.533783 
	C136.003586,66.800217 133.623352,68.262276 128.482986,67.117531 
	C120.730698,65.391129 115.272316,60.312515 110.317673,54.624981 
	C107.976295,51.937283 110.066551,47.644592 114.387680,45.591457 
	C120.863205,42.514698 129.250443,44.245823 133.977127,49.424927 
	C135.551270,51.149746 136.011566,53.179443 136.655945,55.665115 
z"/>
<path fill="#2E2E2F" opacity="1.000000" stroke="none" 
	d="
M130.347992,136.640762 
	C134.632172,137.991806 134.866699,141.376404 134.486267,144.423386 
	C133.949860,148.719925 131.028046,151.557846 126.884804,152.663666 
	C125.046440,153.154327 122.875175,153.092056 121.011398,152.638367 
	C117.830215,151.863983 115.069008,149.886856 114.361710,146.619324 
	C113.580040,143.008270 116.872429,141.744461 119.420708,140.908325 
	C123.075958,139.708954 125.297775,135.097641 130.347992,136.640762 
z"/>
</svg>